G04 #@! TF.GenerationSoftware,KiCad,Pcbnew,9.0.3*
G04 #@! TF.CreationDate,2025-08-04T02:04:29-07:00*
G04 #@! TF.ProjectId,OneBoardFlex,4f6e6542-6f61-4726-9446-6c65782e6b69,rev?*
G04 #@! TF.SameCoordinates,Original*
G04 #@! TF.FileFunction,Soldermask,Top*
G04 #@! TF.FilePolarity,Negative*
%FSLAX46Y46*%
G04 Gerber Fmt 4.6, Leading zero omitted, Abs format (unit mm)*
G04 Created by KiCad (PCBNEW 9.0.3) date 2025-08-04 02:04:29*
%MOMM*%
%LPD*%
G01*
G04 APERTURE LIST*
G04 Aperture macros list*
%AMRoundRect*
0 Rectangle with rounded corners*
0 $1 Rounding radius*
0 $2 $3 $4 $5 $6 $7 $8 $9 X,Y pos of 4 corners*
0 Add a 4 corners polygon primitive as box body*
4,1,4,$2,$3,$4,$5,$6,$7,$8,$9,$2,$3,0*
0 Add four circle primitives for the rounded corners*
1,1,$1+$1,$2,$3*
1,1,$1+$1,$4,$5*
1,1,$1+$1,$6,$7*
1,1,$1+$1,$8,$9*
0 Add four rect primitives between the rounded corners*
20,1,$1+$1,$2,$3,$4,$5,0*
20,1,$1+$1,$4,$5,$6,$7,0*
20,1,$1+$1,$6,$7,$8,$9,0*
20,1,$1+$1,$8,$9,$2,$3,0*%
%AMRotRect*
0 Rectangle, with rotation*
0 The origin of the aperture is its center*
0 $1 length*
0 $2 width*
0 $3 Rotation angle, in degrees counterclockwise*
0 Add horizontal line*
21,1,$1,$2,0,0,$3*%
G04 Aperture macros list end*
%ADD10C,0.650000*%
%ADD11R,0.300000X1.750000*%
%ADD12O,0.900000X2.100000*%
%ADD13O,1.000000X1.600000*%
%ADD14RoundRect,0.100000X-0.021213X-0.162635X0.162635X0.021213X0.021213X0.162635X-0.162635X-0.021213X0*%
%ADD15RoundRect,0.100000X-0.162635X0.021213X0.021213X-0.162635X0.162635X-0.021213X-0.021213X0.162635X0*%
%ADD16RoundRect,0.250000X-0.250000X0.250000X-0.250000X-0.250000X0.250000X-0.250000X0.250000X0.250000X0*%
%ADD17RoundRect,0.100000X0.021213X0.162635X-0.162635X-0.021213X-0.021213X-0.162635X0.162635X0.021213X0*%
%ADD18RoundRect,0.140000X0.140000X0.170000X-0.140000X0.170000X-0.140000X-0.170000X0.140000X-0.170000X0*%
%ADD19RoundRect,0.100000X-0.130000X-0.100000X0.130000X-0.100000X0.130000X0.100000X-0.130000X0.100000X0*%
%ADD20RoundRect,0.250000X-0.475000X0.250000X-0.475000X-0.250000X0.475000X-0.250000X0.475000X0.250000X0*%
%ADD21RoundRect,0.140000X-0.021213X0.219203X-0.219203X0.021213X0.021213X-0.219203X0.219203X-0.021213X0*%
%ADD22RoundRect,0.250000X-0.565685X0.070711X0.070711X-0.565685X0.565685X-0.070711X-0.070711X0.565685X0*%
%ADD23RoundRect,0.100000X0.130000X0.100000X-0.130000X0.100000X-0.130000X-0.100000X0.130000X-0.100000X0*%
%ADD24RoundRect,0.100000X0.162635X-0.021213X-0.021213X0.162635X-0.162635X0.021213X0.021213X-0.162635X0*%
%ADD25RoundRect,0.050000X-0.309359X0.238649X0.238649X-0.309359X0.309359X-0.238649X-0.238649X0.309359X0*%
%ADD26RoundRect,0.050000X-0.309359X-0.238649X-0.238649X-0.309359X0.309359X0.238649X0.238649X0.309359X0*%
%ADD27RotRect,3.200000X3.200000X315.000000*%
%ADD28RoundRect,0.150000X-0.512500X-0.150000X0.512500X-0.150000X0.512500X0.150000X-0.512500X0.150000X0*%
%ADD29RotRect,0.400000X0.300000X45.000000*%
%ADD30RotRect,0.200000X1.600000X45.000000*%
%ADD31R,0.750000X1.000000*%
%ADD32RoundRect,0.250000X0.250000X0.475000X-0.250000X0.475000X-0.250000X-0.475000X0.250000X-0.475000X0*%
G04 APERTURE END LIST*
D10*
X195597800Y-72183800D03*
X189817800Y-72183800D03*
D11*
X196057800Y-73523800D03*
X195257800Y-73523800D03*
X193957800Y-73523800D03*
X192957800Y-73523800D03*
X192457800Y-73523800D03*
X191457800Y-73523800D03*
X190157800Y-73523800D03*
X189357800Y-73523800D03*
X189657800Y-73523800D03*
X190457800Y-73523800D03*
X190957800Y-73523800D03*
X191957800Y-73523800D03*
X193457800Y-73523800D03*
X194457800Y-73523800D03*
X194957800Y-73523800D03*
X195757800Y-73523800D03*
D12*
X197027800Y-72683800D03*
D13*
X197027800Y-68503800D03*
D12*
X188387800Y-72683800D03*
D13*
X188387800Y-68503800D03*
D14*
X196600652Y-83789948D03*
X197053200Y-83337400D03*
D15*
X195353726Y-96268326D03*
X195806274Y-96720874D03*
D14*
X196445926Y-88719874D03*
X196898474Y-88267326D03*
D16*
X202361800Y-78302801D03*
X202361800Y-80802799D03*
D17*
X189380074Y-95582526D03*
X188927526Y-96035074D03*
D18*
X188059000Y-96926400D03*
X187099000Y-96926400D03*
D19*
X186674800Y-89611200D03*
X187314800Y-89611200D03*
D20*
X200355200Y-69712801D03*
X200355200Y-71612799D03*
D21*
X192973011Y-99939789D03*
X192294189Y-100618611D03*
D22*
X188740142Y-98781623D03*
X190295777Y-100337258D03*
X191497858Y-99135177D03*
X189942223Y-97579542D03*
D23*
X190954000Y-76022200D03*
X190314000Y-76022200D03*
D14*
X192585126Y-85773474D03*
X193037674Y-85320926D03*
D24*
X198270074Y-94282474D03*
X197817526Y-93829926D03*
D17*
X198320874Y-90400926D03*
X197868326Y-90853474D03*
X198879674Y-90959726D03*
X198427126Y-91412274D03*
D16*
X200329800Y-73299001D03*
X200329800Y-75798999D03*
D25*
X192115598Y-88104643D03*
X191832755Y-88387486D03*
X191549913Y-88670328D03*
X191267070Y-88953171D03*
X190984227Y-89236014D03*
X190701385Y-89518856D03*
X190418542Y-89801699D03*
X190135699Y-90084542D03*
X189852856Y-90367385D03*
X189570014Y-90650227D03*
X189287171Y-90933070D03*
X189004328Y-91215913D03*
X188721486Y-91498755D03*
X188438643Y-91781598D03*
D26*
X188438643Y-92966002D03*
X188721486Y-93248845D03*
X189004328Y-93531687D03*
X189287171Y-93814530D03*
X189570014Y-94097373D03*
X189852856Y-94380215D03*
X190135699Y-94663058D03*
X190418542Y-94945901D03*
X190701385Y-95228744D03*
X190984227Y-95511586D03*
X191267070Y-95794429D03*
X191549913Y-96077272D03*
X191832755Y-96360114D03*
X192115598Y-96642957D03*
D25*
X193300002Y-96642957D03*
X193582845Y-96360114D03*
X193865687Y-96077272D03*
X194148530Y-95794429D03*
X194431373Y-95511586D03*
X194714215Y-95228744D03*
X194997058Y-94945901D03*
X195279901Y-94663058D03*
X195562744Y-94380215D03*
X195845586Y-94097373D03*
X196128429Y-93814530D03*
X196411272Y-93531687D03*
X196694114Y-93248845D03*
X196976957Y-92966002D03*
D26*
X196976957Y-91781598D03*
X196694114Y-91498755D03*
X196411272Y-91215913D03*
X196128429Y-90933070D03*
X195845586Y-90650227D03*
X195562744Y-90367385D03*
X195279901Y-90084542D03*
X194997058Y-89801699D03*
X194714215Y-89518856D03*
X194431373Y-89236014D03*
X194148530Y-88953171D03*
X193865687Y-88670328D03*
X193582845Y-88387486D03*
X193300002Y-88104643D03*
D27*
X192707800Y-92373800D03*
D17*
X198930474Y-88140326D03*
X198477926Y-88592874D03*
D28*
X202519700Y-73280101D03*
X202519700Y-74230100D03*
X202519700Y-75180099D03*
X204794700Y-75180099D03*
X204794700Y-73280101D03*
D29*
X194123861Y-86170198D03*
X194477414Y-86523751D03*
X194830968Y-86877305D03*
X195184521Y-87230858D03*
X196881577Y-85533802D03*
X196528024Y-85180249D03*
X196174470Y-84826695D03*
X195820917Y-84473142D03*
D30*
X195502719Y-85852000D03*
D17*
X198397074Y-87606926D03*
X197944526Y-88059474D03*
D31*
X181767000Y-77211500D03*
X181767000Y-71211500D03*
X185517000Y-77211500D03*
X185517000Y-71211500D03*
D17*
X197762074Y-89842126D03*
X197309526Y-90294674D03*
D19*
X194244000Y-76022200D03*
X194884000Y-76022200D03*
D32*
X204073799Y-71374000D03*
X202173801Y-71374000D03*
D15*
X190857926Y-86717926D03*
X191310474Y-87170474D03*
G36*
X136963039Y-75849685D02*
G01*
X137008794Y-75902489D01*
X137020000Y-75954000D01*
X137020000Y-79356000D01*
X137000315Y-79423039D01*
X136947511Y-79468794D01*
X136896000Y-79480000D01*
X120534000Y-79480000D01*
X120466961Y-79460315D01*
X120421206Y-79407511D01*
X120410000Y-79356000D01*
X120410000Y-75954000D01*
X120429685Y-75886961D01*
X120482489Y-75841206D01*
X120534000Y-75830000D01*
X136896000Y-75830000D01*
X136963039Y-75849685D01*
G37*
G36*
X136953039Y-81539685D02*
G01*
X136998794Y-81592489D01*
X137010000Y-81644000D01*
X137010000Y-85046000D01*
X136990315Y-85113039D01*
X136937511Y-85158794D01*
X136886000Y-85170000D01*
X120524000Y-85170000D01*
X120456961Y-85150315D01*
X120411206Y-85097511D01*
X120400000Y-85046000D01*
X120400000Y-81644000D01*
X120419685Y-81576961D01*
X120472489Y-81531206D01*
X120524000Y-81520000D01*
X136886000Y-81520000D01*
X136953039Y-81539685D01*
G37*
M02*
