M48
; DRILL file {KiCad 9.0.3} date 2025-08-04T02:04:32-0700
; FORMAT={-:-/ absolute / metric / decimal}
; #@! TF.CreationDate,2025-08-04T02:04:32-07:00
; #@! TF.GenerationSoftware,Kicad,Pcbnew,9.0.3
; #@! TF.FileFunction,Plated,1,2,PTH
FMAT,2
METRIC
; #@! TA.AperFunction,Plated,PTH,ViaDrill
T1C0.150
; #@! TA.AperFunction,Plated,PTH,ComponentDrill
T2C0.500
; #@! TA.AperFunction,Plated,PTH,ComponentDrill
T3C0.600
%
G90
G05
T1
X120.93Y-69.44
X120.94Y-70.58
X120.95Y-90.18
X120.95Y-91.13
X120.96Y-99.16
X120.96Y-99.62
X120.96Y-100.07
X120.96Y-100.52
X121.98Y-69.44
X121.98Y-70.58
X121.98Y-90.18
X121.98Y-91.13
X123.02Y-69.44
X123.02Y-70.58
X123.02Y-90.18
X123.02Y-91.13
X124.06Y-69.44
X124.06Y-70.58
X124.07Y-90.17
X124.07Y-91.14
X124.649Y-69.44
X124.649Y-70.58
X125.11Y-90.17
X125.11Y-91.14
X126.14Y-69.44
X126.14Y-70.58
X126.65Y-90.17
X126.65Y-91.14
X126.689Y-69.44
X126.689Y-70.58
X127.254Y-109.81
X127.651Y-90.17
X127.651Y-91.14
X127.729Y-69.44
X127.729Y-70.58
X127.762Y-109.81
X128.21Y-90.17
X128.22Y-91.14
X128.27Y-109.81
X128.73Y-67.97
X128.741Y-109.81
X129.26Y-69.44
X129.26Y-70.58
X129.27Y-90.16
X129.27Y-91.15
X129.79Y-67.95
X130.3Y-69.44
X130.3Y-70.58
X130.31Y-90.15
X130.31Y-91.16
X130.84Y-67.95
X131.34Y-69.46
X131.34Y-70.58
X131.37Y-90.14
X131.37Y-91.19
X131.88Y-67.95
X132.38Y-69.48
X132.38Y-70.58
X132.39Y-90.14
X132.39Y-91.2
X132.89Y-67.95
X133.42Y-69.5
X133.42Y-70.58
X133.43Y-90.13
X133.43Y-91.21
X133.96Y-67.95
X134.44Y-90.13
X134.44Y-91.21
X134.46Y-69.48
X134.46Y-70.58
X134.96Y-67.96
X135.5Y-69.43
X135.5Y-70.58
X135.5Y-90.14
X135.5Y-91.23
X136.0Y-67.96
X136.54Y-69.46
X136.54Y-70.58
X136.54Y-90.14
X136.54Y-91.2
X137.04Y-67.96
X180.518Y-101.117
X181.0Y-99.879
X181.247Y-99.256
X182.173Y-102.889
X182.375Y-102.213
X182.728Y-99.314
X182.855Y-98.374
X182.912Y-97.866
X183.183Y-108.712
X183.882Y-107.62
X184.036Y-108.699
X184.556Y-106.756
X184.81Y-107.95
X185.217Y-105.893
X185.572Y-107.213
X185.725Y-89.611
X185.903Y-105.029
X186.169Y-92.875
X186.258Y-106.528
X186.563Y-104.165
X187.096Y-105.689
X187.249Y-103.302
X187.808Y-104.978
X187.935Y-102.337
X188.214Y-89.611
X188.493Y-94.844
X189.535Y-96.571
X190.525Y-96.393
X191.897Y-86.69
X193.777Y-100.66
X194.259Y-101.041
X194.793Y-83.261
X195.174Y-101.473
X195.707Y-101.981
X195.732Y-91.872
X195.809Y-95.783
X196.41Y-89.383
X198.349Y-92.862
X198.552Y-92.431
X198.882Y-92.786
X202.946Y-82.321
X204.673Y-71.933
X205.105Y-71.577
X205.105Y-72.288
X205.511Y-71.882
T2
G00X188.388Y-73.284
M15
G01X188.388Y-72.084
M16
G05
G00X197.028Y-73.284
M15
G01X197.028Y-72.084
M16
G05
T3
G00X188.388Y-68.804
M15
G01X188.388Y-68.204
M16
G05
G00X197.028Y-68.804
M15
G01X197.028Y-68.204
M16
G05
M30
