G04 #@! TF.GenerationSoftware,KiCad,Pcbnew,9.0.3*
G04 #@! TF.CreationDate,2025-08-04T02:04:29-07:00*
G04 #@! TF.ProjectId,OneBoardFlex,4f6e6542-6f61-4726-9446-6c65782e6b69,rev?*
G04 #@! TF.SameCoordinates,Original*
G04 #@! TF.FileFunction,Paste,Top*
G04 #@! TF.FilePolarity,Positive*
%FSLAX46Y46*%
G04 Gerber Fmt 4.6, Leading zero omitted, Abs format (unit mm)*
G04 Created by KiCad (PCBNEW 9.0.3) date 2025-08-04 02:04:29*
%MOMM*%
%LPD*%
G01*
G04 APERTURE LIST*
G04 Aperture macros list*
%AMRoundRect*
0 Rectangle with rounded corners*
0 $1 Rounding radius*
0 $2 $3 $4 $5 $6 $7 $8 $9 X,Y pos of 4 corners*
0 Add a 4 corners polygon primitive as box body*
4,1,4,$2,$3,$4,$5,$6,$7,$8,$9,$2,$3,0*
0 Add four circle primitives for the rounded corners*
1,1,$1+$1,$2,$3*
1,1,$1+$1,$4,$5*
1,1,$1+$1,$6,$7*
1,1,$1+$1,$8,$9*
0 Add four rect primitives between the rounded corners*
20,1,$1+$1,$2,$3,$4,$5,0*
20,1,$1+$1,$4,$5,$6,$7,0*
20,1,$1+$1,$6,$7,$8,$9,0*
20,1,$1+$1,$8,$9,$2,$3,0*%
%AMRotRect*
0 Rectangle, with rotation*
0 The origin of the aperture is its center*
0 $1 length*
0 $2 width*
0 $3 Rotation angle, in degrees counterclockwise*
0 Add horizontal line*
21,1,$1,$2,0,0,$3*%
G04 Aperture macros list end*
%ADD10R,0.300000X1.750000*%
%ADD11RoundRect,0.079500X0.014849X-0.127279X0.127279X-0.014849X-0.014849X0.127279X-0.127279X0.014849X0*%
%ADD12RoundRect,0.079500X-0.127279X-0.014849X-0.014849X-0.127279X0.127279X0.014849X0.014849X0.127279X0*%
%ADD13RoundRect,0.250000X-0.250000X0.250000X-0.250000X-0.250000X0.250000X-0.250000X0.250000X0.250000X0*%
%ADD14RoundRect,0.079500X-0.014849X0.127279X-0.127279X0.014849X0.014849X-0.127279X0.127279X-0.014849X0*%
%ADD15RoundRect,0.140000X0.140000X0.170000X-0.140000X0.170000X-0.140000X-0.170000X0.140000X-0.170000X0*%
%ADD16RoundRect,0.079500X-0.079500X-0.100500X0.079500X-0.100500X0.079500X0.100500X-0.079500X0.100500X0*%
%ADD17RoundRect,0.250000X-0.475000X0.250000X-0.475000X-0.250000X0.475000X-0.250000X0.475000X0.250000X0*%
%ADD18RoundRect,0.140000X-0.021213X0.219203X-0.219203X0.021213X0.021213X-0.219203X0.219203X-0.021213X0*%
%ADD19RoundRect,0.250000X-0.565685X0.070711X0.070711X-0.565685X0.565685X-0.070711X-0.070711X0.565685X0*%
%ADD20RoundRect,0.079500X0.079500X0.100500X-0.079500X0.100500X-0.079500X-0.100500X0.079500X-0.100500X0*%
%ADD21RoundRect,0.079500X0.127279X0.014849X0.014849X0.127279X-0.127279X-0.014849X-0.014849X-0.127279X0*%
%ADD22RoundRect,0.249999X-0.558616X0.000000X0.000000X-0.558616X0.558616X0.000000X0.000000X0.558616X0*%
%ADD23RoundRect,0.050000X-0.309359X0.238649X0.238649X-0.309359X0.309359X-0.238649X-0.238649X0.309359X0*%
%ADD24RoundRect,0.050000X-0.309359X-0.238649X-0.238649X-0.309359X0.309359X0.238649X0.238649X0.309359X0*%
%ADD25RoundRect,0.150000X-0.512500X-0.150000X0.512500X-0.150000X0.512500X0.150000X-0.512500X0.150000X0*%
%ADD26RotRect,0.400000X0.300000X45.000000*%
%ADD27RotRect,0.200000X1.600000X45.000000*%
%ADD28R,0.750000X1.000000*%
%ADD29RoundRect,0.250000X0.250000X0.475000X-0.250000X0.475000X-0.250000X-0.475000X0.250000X-0.475000X0*%
G04 APERTURE END LIST*
D10*
X196057800Y-73523800D03*
X195257800Y-73523800D03*
X193957800Y-73523800D03*
X192957800Y-73523800D03*
X192457800Y-73523800D03*
X191457800Y-73523800D03*
X190157800Y-73523800D03*
X189357800Y-73523800D03*
X189657800Y-73523800D03*
X190457800Y-73523800D03*
X190957800Y-73523800D03*
X191957800Y-73523800D03*
X193457800Y-73523800D03*
X194457800Y-73523800D03*
X194957800Y-73523800D03*
X195757800Y-73523800D03*
D11*
X196582974Y-83807626D03*
X197070878Y-83319722D03*
D12*
X195336048Y-96250648D03*
X195823952Y-96738552D03*
D11*
X196428248Y-88737552D03*
X196916152Y-88249648D03*
D13*
X202361800Y-78302801D03*
X202361800Y-80802799D03*
D14*
X189397752Y-95564848D03*
X188909848Y-96052752D03*
D15*
X188059000Y-96926400D03*
X187099000Y-96926400D03*
D16*
X186649800Y-89611200D03*
X187339800Y-89611200D03*
D17*
X200355200Y-69712801D03*
X200355200Y-71612799D03*
D18*
X192973011Y-99939789D03*
X192294189Y-100618611D03*
D19*
X188740142Y-98781623D03*
X190295777Y-100337258D03*
X191497858Y-99135177D03*
X189942223Y-97579542D03*
D20*
X190979000Y-76022200D03*
X190289000Y-76022200D03*
D11*
X192567448Y-85791152D03*
X193055352Y-85303248D03*
D21*
X198287752Y-94300152D03*
X197799848Y-93812248D03*
D14*
X198338552Y-90383248D03*
X197850648Y-90871152D03*
X198897352Y-90942048D03*
X198409448Y-91429952D03*
D13*
X200329800Y-73299001D03*
X200329800Y-75798999D03*
D22*
X192707800Y-91242429D03*
X191576429Y-92373800D03*
X193839171Y-92373800D03*
X192707800Y-93505171D03*
D23*
X192115598Y-88104643D03*
X191832755Y-88387486D03*
X191549913Y-88670328D03*
X191267070Y-88953171D03*
X190984227Y-89236014D03*
X190701385Y-89518856D03*
X190418542Y-89801699D03*
X190135699Y-90084542D03*
X189852856Y-90367385D03*
X189570014Y-90650227D03*
X189287171Y-90933070D03*
X189004328Y-91215913D03*
X188721486Y-91498755D03*
X188438643Y-91781598D03*
D24*
X188438643Y-92966002D03*
X188721486Y-93248845D03*
X189004328Y-93531687D03*
X189287171Y-93814530D03*
X189570014Y-94097373D03*
X189852856Y-94380215D03*
X190135699Y-94663058D03*
X190418542Y-94945901D03*
X190701385Y-95228744D03*
X190984227Y-95511586D03*
X191267070Y-95794429D03*
X191549913Y-96077272D03*
X191832755Y-96360114D03*
X192115598Y-96642957D03*
D23*
X193300002Y-96642957D03*
X193582845Y-96360114D03*
X193865687Y-96077272D03*
X194148530Y-95794429D03*
X194431373Y-95511586D03*
X194714215Y-95228744D03*
X194997058Y-94945901D03*
X195279901Y-94663058D03*
X195562744Y-94380215D03*
X195845586Y-94097373D03*
X196128429Y-93814530D03*
X196411272Y-93531687D03*
X196694114Y-93248845D03*
X196976957Y-92966002D03*
D24*
X196976957Y-91781598D03*
X196694114Y-91498755D03*
X196411272Y-91215913D03*
X196128429Y-90933070D03*
X195845586Y-90650227D03*
X195562744Y-90367385D03*
X195279901Y-90084542D03*
X194997058Y-89801699D03*
X194714215Y-89518856D03*
X194431373Y-89236014D03*
X194148530Y-88953171D03*
X193865687Y-88670328D03*
X193582845Y-88387486D03*
X193300002Y-88104643D03*
D14*
X198948152Y-88122648D03*
X198460248Y-88610552D03*
D25*
X202519700Y-73280101D03*
X202519700Y-74230100D03*
X202519700Y-75180099D03*
X204794700Y-75180099D03*
X204794700Y-73280101D03*
D26*
X194123861Y-86170198D03*
X194477414Y-86523751D03*
X194830968Y-86877305D03*
X195184521Y-87230858D03*
X196881577Y-85533802D03*
X196528024Y-85180249D03*
X196174470Y-84826695D03*
X195820917Y-84473142D03*
D27*
X195502719Y-85852000D03*
D14*
X198414752Y-87589248D03*
X197926848Y-88077152D03*
D28*
X181767000Y-77211500D03*
X181767000Y-71211500D03*
X185517000Y-77211500D03*
X185517000Y-71211500D03*
D14*
X197779752Y-89824448D03*
X197291848Y-90312352D03*
D16*
X194219000Y-76022200D03*
X194909000Y-76022200D03*
D29*
X204073799Y-71374000D03*
X202173801Y-71374000D03*
D12*
X190840248Y-86700248D03*
X191328152Y-87188152D03*
M02*
