G04 #@! TF.GenerationSoftware,KiCad,Pcbnew,9.0.3*
G04 #@! TF.CreationDate,2025-08-18T12:19:55-07:00*
G04 #@! TF.ProjectId,OneBoardFlex,4f6e6542-6f61-4726-9446-6c65782e6b69,rev?*
G04 #@! TF.SameCoordinates,Original*
G04 #@! TF.FileFunction,Legend,Bot*
G04 #@! TF.FilePolarity,Positive*
%FSLAX46Y46*%
G04 Gerber Fmt 4.6, Leading zero omitted, Abs format (unit mm)*
G04 Created by KiCad (PCBNEW 9.0.3) date 2025-08-18 12:19:55*
%MOMM*%
%LPD*%
G01*
G04 APERTURE LIST*
%ADD10C,0.100000*%
%ADD11C,0.300000*%
%ADD12C,0.158750*%
%ADD13C,0.125000*%
%ADD14C,0.200000*%
%ADD15C,0.650000*%
%ADD16O,0.900000X2.100000*%
%ADD17O,1.000000X1.600000*%
G04 APERTURE END LIST*
D10*
X120830000Y-80470000D02*
X126580000Y-80470000D01*
X130900000Y-80470000D02*
X136650000Y-80470000D01*
D11*
X132676918Y-62894198D02*
X132462632Y-62965626D01*
X132462632Y-62965626D02*
X132391203Y-63037055D01*
X132391203Y-63037055D02*
X132319775Y-63179912D01*
X132319775Y-63179912D02*
X132319775Y-63394198D01*
X132319775Y-63394198D02*
X132391203Y-63537055D01*
X132391203Y-63537055D02*
X132462632Y-63608484D01*
X132462632Y-63608484D02*
X132605489Y-63679912D01*
X132605489Y-63679912D02*
X133176918Y-63679912D01*
X133176918Y-63679912D02*
X133176918Y-62179912D01*
X133176918Y-62179912D02*
X132676918Y-62179912D01*
X132676918Y-62179912D02*
X132534061Y-62251341D01*
X132534061Y-62251341D02*
X132462632Y-62322769D01*
X132462632Y-62322769D02*
X132391203Y-62465626D01*
X132391203Y-62465626D02*
X132391203Y-62608484D01*
X132391203Y-62608484D02*
X132462632Y-62751341D01*
X132462632Y-62751341D02*
X132534061Y-62822769D01*
X132534061Y-62822769D02*
X132676918Y-62894198D01*
X132676918Y-62894198D02*
X133176918Y-62894198D01*
X131391203Y-62179912D02*
X131105489Y-62179912D01*
X131105489Y-62179912D02*
X130962632Y-62251341D01*
X130962632Y-62251341D02*
X130819775Y-62394198D01*
X130819775Y-62394198D02*
X130748346Y-62679912D01*
X130748346Y-62679912D02*
X130748346Y-63179912D01*
X130748346Y-63179912D02*
X130819775Y-63465626D01*
X130819775Y-63465626D02*
X130962632Y-63608484D01*
X130962632Y-63608484D02*
X131105489Y-63679912D01*
X131105489Y-63679912D02*
X131391203Y-63679912D01*
X131391203Y-63679912D02*
X131534061Y-63608484D01*
X131534061Y-63608484D02*
X131676918Y-63465626D01*
X131676918Y-63465626D02*
X131748346Y-63179912D01*
X131748346Y-63179912D02*
X131748346Y-62679912D01*
X131748346Y-62679912D02*
X131676918Y-62394198D01*
X131676918Y-62394198D02*
X131534061Y-62251341D01*
X131534061Y-62251341D02*
X131391203Y-62179912D01*
X130319774Y-62179912D02*
X129462632Y-62179912D01*
X129891203Y-63679912D02*
X129891203Y-62179912D01*
X129176917Y-62179912D02*
X128319775Y-62179912D01*
X128748346Y-63679912D02*
X128748346Y-62179912D01*
X127534060Y-62179912D02*
X127248346Y-62179912D01*
X127248346Y-62179912D02*
X127105489Y-62251341D01*
X127105489Y-62251341D02*
X126962632Y-62394198D01*
X126962632Y-62394198D02*
X126891203Y-62679912D01*
X126891203Y-62679912D02*
X126891203Y-63179912D01*
X126891203Y-63179912D02*
X126962632Y-63465626D01*
X126962632Y-63465626D02*
X127105489Y-63608484D01*
X127105489Y-63608484D02*
X127248346Y-63679912D01*
X127248346Y-63679912D02*
X127534060Y-63679912D01*
X127534060Y-63679912D02*
X127676918Y-63608484D01*
X127676918Y-63608484D02*
X127819775Y-63465626D01*
X127819775Y-63465626D02*
X127891203Y-63179912D01*
X127891203Y-63179912D02*
X127891203Y-62679912D01*
X127891203Y-62679912D02*
X127819775Y-62394198D01*
X127819775Y-62394198D02*
X127676918Y-62251341D01*
X127676918Y-62251341D02*
X127534060Y-62179912D01*
X126248346Y-63679912D02*
X126248346Y-62179912D01*
X126248346Y-62179912D02*
X125748346Y-63251341D01*
X125748346Y-63251341D02*
X125248346Y-62179912D01*
X125248346Y-62179912D02*
X125248346Y-63679912D01*
X135819774Y-64666257D02*
X135962632Y-64594828D01*
X135962632Y-64594828D02*
X136176917Y-64594828D01*
X136176917Y-64594828D02*
X136391203Y-64666257D01*
X136391203Y-64666257D02*
X136534060Y-64809114D01*
X136534060Y-64809114D02*
X136605489Y-64951971D01*
X136605489Y-64951971D02*
X136676917Y-65237685D01*
X136676917Y-65237685D02*
X136676917Y-65451971D01*
X136676917Y-65451971D02*
X136605489Y-65737685D01*
X136605489Y-65737685D02*
X136534060Y-65880542D01*
X136534060Y-65880542D02*
X136391203Y-66023400D01*
X136391203Y-66023400D02*
X136176917Y-66094828D01*
X136176917Y-66094828D02*
X136034060Y-66094828D01*
X136034060Y-66094828D02*
X135819774Y-66023400D01*
X135819774Y-66023400D02*
X135748346Y-65951971D01*
X135748346Y-65951971D02*
X135748346Y-65451971D01*
X135748346Y-65451971D02*
X136034060Y-65451971D01*
X134248346Y-65951971D02*
X134319774Y-66023400D01*
X134319774Y-66023400D02*
X134534060Y-66094828D01*
X134534060Y-66094828D02*
X134676917Y-66094828D01*
X134676917Y-66094828D02*
X134891203Y-66023400D01*
X134891203Y-66023400D02*
X135034060Y-65880542D01*
X135034060Y-65880542D02*
X135105489Y-65737685D01*
X135105489Y-65737685D02*
X135176917Y-65451971D01*
X135176917Y-65451971D02*
X135176917Y-65237685D01*
X135176917Y-65237685D02*
X135105489Y-64951971D01*
X135105489Y-64951971D02*
X135034060Y-64809114D01*
X135034060Y-64809114D02*
X134891203Y-64666257D01*
X134891203Y-64666257D02*
X134676917Y-64594828D01*
X134676917Y-64594828D02*
X134534060Y-64594828D01*
X134534060Y-64594828D02*
X134319774Y-64666257D01*
X134319774Y-64666257D02*
X134248346Y-64737685D01*
X132462632Y-66094828D02*
X132462632Y-64594828D01*
X132462632Y-64594828D02*
X131962632Y-65666257D01*
X131962632Y-65666257D02*
X131462632Y-64594828D01*
X131462632Y-64594828D02*
X131462632Y-66094828D01*
X130462631Y-64594828D02*
X130176917Y-64594828D01*
X130176917Y-64594828D02*
X130034060Y-64666257D01*
X130034060Y-64666257D02*
X129891203Y-64809114D01*
X129891203Y-64809114D02*
X129819774Y-65094828D01*
X129819774Y-65094828D02*
X129819774Y-65594828D01*
X129819774Y-65594828D02*
X129891203Y-65880542D01*
X129891203Y-65880542D02*
X130034060Y-66023400D01*
X130034060Y-66023400D02*
X130176917Y-66094828D01*
X130176917Y-66094828D02*
X130462631Y-66094828D01*
X130462631Y-66094828D02*
X130605489Y-66023400D01*
X130605489Y-66023400D02*
X130748346Y-65880542D01*
X130748346Y-65880542D02*
X130819774Y-65594828D01*
X130819774Y-65594828D02*
X130819774Y-65094828D01*
X130819774Y-65094828D02*
X130748346Y-64809114D01*
X130748346Y-64809114D02*
X130605489Y-64666257D01*
X130605489Y-64666257D02*
X130462631Y-64594828D01*
X128676917Y-65309114D02*
X128462631Y-65380542D01*
X128462631Y-65380542D02*
X128391202Y-65451971D01*
X128391202Y-65451971D02*
X128319774Y-65594828D01*
X128319774Y-65594828D02*
X128319774Y-65809114D01*
X128319774Y-65809114D02*
X128391202Y-65951971D01*
X128391202Y-65951971D02*
X128462631Y-66023400D01*
X128462631Y-66023400D02*
X128605488Y-66094828D01*
X128605488Y-66094828D02*
X129176917Y-66094828D01*
X129176917Y-66094828D02*
X129176917Y-64594828D01*
X129176917Y-64594828D02*
X128676917Y-64594828D01*
X128676917Y-64594828D02*
X128534060Y-64666257D01*
X128534060Y-64666257D02*
X128462631Y-64737685D01*
X128462631Y-64737685D02*
X128391202Y-64880542D01*
X128391202Y-64880542D02*
X128391202Y-65023400D01*
X128391202Y-65023400D02*
X128462631Y-65166257D01*
X128462631Y-65166257D02*
X128534060Y-65237685D01*
X128534060Y-65237685D02*
X128676917Y-65309114D01*
X128676917Y-65309114D02*
X129176917Y-65309114D01*
X127391202Y-64594828D02*
X127105488Y-64594828D01*
X127105488Y-64594828D02*
X126962631Y-64666257D01*
X126962631Y-64666257D02*
X126819774Y-64809114D01*
X126819774Y-64809114D02*
X126748345Y-65094828D01*
X126748345Y-65094828D02*
X126748345Y-65594828D01*
X126748345Y-65594828D02*
X126819774Y-65880542D01*
X126819774Y-65880542D02*
X126962631Y-66023400D01*
X126962631Y-66023400D02*
X127105488Y-66094828D01*
X127105488Y-66094828D02*
X127391202Y-66094828D01*
X127391202Y-66094828D02*
X127534060Y-66023400D01*
X127534060Y-66023400D02*
X127676917Y-65880542D01*
X127676917Y-65880542D02*
X127748345Y-65594828D01*
X127748345Y-65594828D02*
X127748345Y-65094828D01*
X127748345Y-65094828D02*
X127676917Y-64809114D01*
X127676917Y-64809114D02*
X127534060Y-64666257D01*
X127534060Y-64666257D02*
X127391202Y-64594828D01*
X125034059Y-66023400D02*
X124819774Y-66094828D01*
X124819774Y-66094828D02*
X124462631Y-66094828D01*
X124462631Y-66094828D02*
X124319774Y-66023400D01*
X124319774Y-66023400D02*
X124248345Y-65951971D01*
X124248345Y-65951971D02*
X124176916Y-65809114D01*
X124176916Y-65809114D02*
X124176916Y-65666257D01*
X124176916Y-65666257D02*
X124248345Y-65523400D01*
X124248345Y-65523400D02*
X124319774Y-65451971D01*
X124319774Y-65451971D02*
X124462631Y-65380542D01*
X124462631Y-65380542D02*
X124748345Y-65309114D01*
X124748345Y-65309114D02*
X124891202Y-65237685D01*
X124891202Y-65237685D02*
X124962631Y-65166257D01*
X124962631Y-65166257D02*
X125034059Y-65023400D01*
X125034059Y-65023400D02*
X125034059Y-64880542D01*
X125034059Y-64880542D02*
X124962631Y-64737685D01*
X124962631Y-64737685D02*
X124891202Y-64666257D01*
X124891202Y-64666257D02*
X124748345Y-64594828D01*
X124748345Y-64594828D02*
X124391202Y-64594828D01*
X124391202Y-64594828D02*
X124176916Y-64666257D01*
X123534060Y-66094828D02*
X123534060Y-64594828D01*
X122819774Y-66094828D02*
X122819774Y-64594828D01*
X122819774Y-64594828D02*
X122462631Y-64594828D01*
X122462631Y-64594828D02*
X122248345Y-64666257D01*
X122248345Y-64666257D02*
X122105488Y-64809114D01*
X122105488Y-64809114D02*
X122034059Y-64951971D01*
X122034059Y-64951971D02*
X121962631Y-65237685D01*
X121962631Y-65237685D02*
X121962631Y-65451971D01*
X121962631Y-65451971D02*
X122034059Y-65737685D01*
X122034059Y-65737685D02*
X122105488Y-65880542D01*
X122105488Y-65880542D02*
X122248345Y-66023400D01*
X122248345Y-66023400D02*
X122462631Y-66094828D01*
X122462631Y-66094828D02*
X122819774Y-66094828D01*
X121319774Y-65309114D02*
X120819774Y-65309114D01*
X120605488Y-66094828D02*
X121319774Y-66094828D01*
X121319774Y-66094828D02*
X121319774Y-64594828D01*
X121319774Y-64594828D02*
X120605488Y-64594828D01*
D12*
X175632570Y-106217871D02*
X175632570Y-104947871D01*
X175088284Y-106217871D02*
X175088284Y-105552633D01*
X175088284Y-105552633D02*
X175148760Y-105431680D01*
X175148760Y-105431680D02*
X175269712Y-105371204D01*
X175269712Y-105371204D02*
X175451141Y-105371204D01*
X175451141Y-105371204D02*
X175572093Y-105431680D01*
X175572093Y-105431680D02*
X175632570Y-105492156D01*
X174664950Y-105371204D02*
X174181141Y-105371204D01*
X174483522Y-104947871D02*
X174483522Y-106036442D01*
X174483522Y-106036442D02*
X174423045Y-106157395D01*
X174423045Y-106157395D02*
X174302093Y-106217871D01*
X174302093Y-106217871D02*
X174181141Y-106217871D01*
X173939236Y-105371204D02*
X173455427Y-105371204D01*
X173757808Y-104947871D02*
X173757808Y-106036442D01*
X173757808Y-106036442D02*
X173697331Y-106157395D01*
X173697331Y-106157395D02*
X173576379Y-106217871D01*
X173576379Y-106217871D02*
X173455427Y-106217871D01*
X173032094Y-105371204D02*
X173032094Y-106641204D01*
X173032094Y-105431680D02*
X172911141Y-105371204D01*
X172911141Y-105371204D02*
X172669236Y-105371204D01*
X172669236Y-105371204D02*
X172548284Y-105431680D01*
X172548284Y-105431680D02*
X172487808Y-105492156D01*
X172487808Y-105492156D02*
X172427332Y-105613109D01*
X172427332Y-105613109D02*
X172427332Y-105975966D01*
X172427332Y-105975966D02*
X172487808Y-106096918D01*
X172487808Y-106096918D02*
X172548284Y-106157395D01*
X172548284Y-106157395D02*
X172669236Y-106217871D01*
X172669236Y-106217871D02*
X172911141Y-106217871D01*
X172911141Y-106217871D02*
X173032094Y-106157395D01*
X171943522Y-106157395D02*
X171822569Y-106217871D01*
X171822569Y-106217871D02*
X171580665Y-106217871D01*
X171580665Y-106217871D02*
X171459712Y-106157395D01*
X171459712Y-106157395D02*
X171399236Y-106036442D01*
X171399236Y-106036442D02*
X171399236Y-105975966D01*
X171399236Y-105975966D02*
X171459712Y-105855014D01*
X171459712Y-105855014D02*
X171580665Y-105794537D01*
X171580665Y-105794537D02*
X171762093Y-105794537D01*
X171762093Y-105794537D02*
X171883046Y-105734061D01*
X171883046Y-105734061D02*
X171943522Y-105613109D01*
X171943522Y-105613109D02*
X171943522Y-105552633D01*
X171943522Y-105552633D02*
X171883046Y-105431680D01*
X171883046Y-105431680D02*
X171762093Y-105371204D01*
X171762093Y-105371204D02*
X171580665Y-105371204D01*
X171580665Y-105371204D02*
X171459712Y-105431680D01*
X170854951Y-106096918D02*
X170794474Y-106157395D01*
X170794474Y-106157395D02*
X170854951Y-106217871D01*
X170854951Y-106217871D02*
X170915427Y-106157395D01*
X170915427Y-106157395D02*
X170854951Y-106096918D01*
X170854951Y-106096918D02*
X170854951Y-106217871D01*
X170854951Y-105431680D02*
X170794474Y-105492156D01*
X170794474Y-105492156D02*
X170854951Y-105552633D01*
X170854951Y-105552633D02*
X170915427Y-105492156D01*
X170915427Y-105492156D02*
X170854951Y-105431680D01*
X170854951Y-105431680D02*
X170854951Y-105552633D01*
X169343046Y-104887395D02*
X170431617Y-106520252D01*
X168012570Y-104887395D02*
X169101141Y-106520252D01*
X167044951Y-105371204D02*
X167044951Y-106399299D01*
X167044951Y-106399299D02*
X167105427Y-106520252D01*
X167105427Y-106520252D02*
X167165903Y-106580728D01*
X167165903Y-106580728D02*
X167286856Y-106641204D01*
X167286856Y-106641204D02*
X167468284Y-106641204D01*
X167468284Y-106641204D02*
X167589237Y-106580728D01*
X167044951Y-106157395D02*
X167165903Y-106217871D01*
X167165903Y-106217871D02*
X167407808Y-106217871D01*
X167407808Y-106217871D02*
X167528760Y-106157395D01*
X167528760Y-106157395D02*
X167589237Y-106096918D01*
X167589237Y-106096918D02*
X167649713Y-105975966D01*
X167649713Y-105975966D02*
X167649713Y-105613109D01*
X167649713Y-105613109D02*
X167589237Y-105492156D01*
X167589237Y-105492156D02*
X167528760Y-105431680D01*
X167528760Y-105431680D02*
X167407808Y-105371204D01*
X167407808Y-105371204D02*
X167165903Y-105371204D01*
X167165903Y-105371204D02*
X167044951Y-105431680D01*
X166440189Y-106217871D02*
X166440189Y-105371204D01*
X166440189Y-104947871D02*
X166500665Y-105008347D01*
X166500665Y-105008347D02*
X166440189Y-105068823D01*
X166440189Y-105068823D02*
X166379712Y-105008347D01*
X166379712Y-105008347D02*
X166440189Y-104947871D01*
X166440189Y-104947871D02*
X166440189Y-105068823D01*
X166016855Y-105371204D02*
X165533046Y-105371204D01*
X165835427Y-104947871D02*
X165835427Y-106036442D01*
X165835427Y-106036442D02*
X165774950Y-106157395D01*
X165774950Y-106157395D02*
X165653998Y-106217871D01*
X165653998Y-106217871D02*
X165533046Y-106217871D01*
X165109713Y-106217871D02*
X165109713Y-104947871D01*
X164565427Y-106217871D02*
X164565427Y-105552633D01*
X164565427Y-105552633D02*
X164625903Y-105431680D01*
X164625903Y-105431680D02*
X164746855Y-105371204D01*
X164746855Y-105371204D02*
X164928284Y-105371204D01*
X164928284Y-105371204D02*
X165049236Y-105431680D01*
X165049236Y-105431680D02*
X165109713Y-105492156D01*
X163416379Y-105371204D02*
X163416379Y-106217871D01*
X163960665Y-105371204D02*
X163960665Y-106036442D01*
X163960665Y-106036442D02*
X163900188Y-106157395D01*
X163900188Y-106157395D02*
X163779236Y-106217871D01*
X163779236Y-106217871D02*
X163597807Y-106217871D01*
X163597807Y-106217871D02*
X163476855Y-106157395D01*
X163476855Y-106157395D02*
X163416379Y-106096918D01*
X162811617Y-106217871D02*
X162811617Y-104947871D01*
X162811617Y-105431680D02*
X162690664Y-105371204D01*
X162690664Y-105371204D02*
X162448759Y-105371204D01*
X162448759Y-105371204D02*
X162327807Y-105431680D01*
X162327807Y-105431680D02*
X162267331Y-105492156D01*
X162267331Y-105492156D02*
X162206855Y-105613109D01*
X162206855Y-105613109D02*
X162206855Y-105975966D01*
X162206855Y-105975966D02*
X162267331Y-106096918D01*
X162267331Y-106096918D02*
X162327807Y-106157395D01*
X162327807Y-106157395D02*
X162448759Y-106217871D01*
X162448759Y-106217871D02*
X162690664Y-106217871D01*
X162690664Y-106217871D02*
X162811617Y-106157395D01*
X161662569Y-106096918D02*
X161602092Y-106157395D01*
X161602092Y-106157395D02*
X161662569Y-106217871D01*
X161662569Y-106217871D02*
X161723045Y-106157395D01*
X161723045Y-106157395D02*
X161662569Y-106096918D01*
X161662569Y-106096918D02*
X161662569Y-106217871D01*
X160513521Y-106157395D02*
X160634473Y-106217871D01*
X160634473Y-106217871D02*
X160876378Y-106217871D01*
X160876378Y-106217871D02*
X160997330Y-106157395D01*
X160997330Y-106157395D02*
X161057807Y-106096918D01*
X161057807Y-106096918D02*
X161118283Y-105975966D01*
X161118283Y-105975966D02*
X161118283Y-105613109D01*
X161118283Y-105613109D02*
X161057807Y-105492156D01*
X161057807Y-105492156D02*
X160997330Y-105431680D01*
X160997330Y-105431680D02*
X160876378Y-105371204D01*
X160876378Y-105371204D02*
X160634473Y-105371204D01*
X160634473Y-105371204D02*
X160513521Y-105431680D01*
X159787807Y-106217871D02*
X159908759Y-106157395D01*
X159908759Y-106157395D02*
X159969236Y-106096918D01*
X159969236Y-106096918D02*
X160029712Y-105975966D01*
X160029712Y-105975966D02*
X160029712Y-105613109D01*
X160029712Y-105613109D02*
X159969236Y-105492156D01*
X159969236Y-105492156D02*
X159908759Y-105431680D01*
X159908759Y-105431680D02*
X159787807Y-105371204D01*
X159787807Y-105371204D02*
X159606378Y-105371204D01*
X159606378Y-105371204D02*
X159485426Y-105431680D01*
X159485426Y-105431680D02*
X159424950Y-105492156D01*
X159424950Y-105492156D02*
X159364474Y-105613109D01*
X159364474Y-105613109D02*
X159364474Y-105975966D01*
X159364474Y-105975966D02*
X159424950Y-106096918D01*
X159424950Y-106096918D02*
X159485426Y-106157395D01*
X159485426Y-106157395D02*
X159606378Y-106217871D01*
X159606378Y-106217871D02*
X159787807Y-106217871D01*
X158820188Y-106217871D02*
X158820188Y-105371204D01*
X158820188Y-105492156D02*
X158759711Y-105431680D01*
X158759711Y-105431680D02*
X158638759Y-105371204D01*
X158638759Y-105371204D02*
X158457330Y-105371204D01*
X158457330Y-105371204D02*
X158336378Y-105431680D01*
X158336378Y-105431680D02*
X158275902Y-105552633D01*
X158275902Y-105552633D02*
X158275902Y-106217871D01*
X158275902Y-105552633D02*
X158215426Y-105431680D01*
X158215426Y-105431680D02*
X158094473Y-105371204D01*
X158094473Y-105371204D02*
X157913045Y-105371204D01*
X157913045Y-105371204D02*
X157792092Y-105431680D01*
X157792092Y-105431680D02*
X157731616Y-105552633D01*
X157731616Y-105552633D02*
X157731616Y-106217871D01*
X156219712Y-104887395D02*
X157308283Y-106520252D01*
X155796379Y-106217871D02*
X155796379Y-105371204D01*
X155796379Y-105492156D02*
X155735902Y-105431680D01*
X155735902Y-105431680D02*
X155614950Y-105371204D01*
X155614950Y-105371204D02*
X155433521Y-105371204D01*
X155433521Y-105371204D02*
X155312569Y-105431680D01*
X155312569Y-105431680D02*
X155252093Y-105552633D01*
X155252093Y-105552633D02*
X155252093Y-106217871D01*
X155252093Y-105552633D02*
X155191617Y-105431680D01*
X155191617Y-105431680D02*
X155070664Y-105371204D01*
X155070664Y-105371204D02*
X154889236Y-105371204D01*
X154889236Y-105371204D02*
X154768283Y-105431680D01*
X154768283Y-105431680D02*
X154707807Y-105552633D01*
X154707807Y-105552633D02*
X154707807Y-106217871D01*
X153558760Y-106217871D02*
X153558760Y-105552633D01*
X153558760Y-105552633D02*
X153619236Y-105431680D01*
X153619236Y-105431680D02*
X153740188Y-105371204D01*
X153740188Y-105371204D02*
X153982093Y-105371204D01*
X153982093Y-105371204D02*
X154103046Y-105431680D01*
X153558760Y-106157395D02*
X153679712Y-106217871D01*
X153679712Y-106217871D02*
X153982093Y-106217871D01*
X153982093Y-106217871D02*
X154103046Y-106157395D01*
X154103046Y-106157395D02*
X154163522Y-106036442D01*
X154163522Y-106036442D02*
X154163522Y-105915490D01*
X154163522Y-105915490D02*
X154103046Y-105794537D01*
X154103046Y-105794537D02*
X153982093Y-105734061D01*
X153982093Y-105734061D02*
X153679712Y-105734061D01*
X153679712Y-105734061D02*
X153558760Y-105673585D01*
X152953998Y-106217871D02*
X152953998Y-104947871D01*
X152833045Y-105734061D02*
X152470188Y-106217871D01*
X152470188Y-105371204D02*
X152953998Y-105855014D01*
X151442093Y-106157395D02*
X151563045Y-106217871D01*
X151563045Y-106217871D02*
X151804950Y-106217871D01*
X151804950Y-106217871D02*
X151925903Y-106157395D01*
X151925903Y-106157395D02*
X151986379Y-106036442D01*
X151986379Y-106036442D02*
X151986379Y-105552633D01*
X151986379Y-105552633D02*
X151925903Y-105431680D01*
X151925903Y-105431680D02*
X151804950Y-105371204D01*
X151804950Y-105371204D02*
X151563045Y-105371204D01*
X151563045Y-105371204D02*
X151442093Y-105431680D01*
X151442093Y-105431680D02*
X151381617Y-105552633D01*
X151381617Y-105552633D02*
X151381617Y-105673585D01*
X151381617Y-105673585D02*
X151986379Y-105794537D01*
X150655903Y-106217871D02*
X150776855Y-106157395D01*
X150776855Y-106157395D02*
X150837332Y-106096918D01*
X150837332Y-106096918D02*
X150897808Y-105975966D01*
X150897808Y-105975966D02*
X150897808Y-105613109D01*
X150897808Y-105613109D02*
X150837332Y-105492156D01*
X150837332Y-105492156D02*
X150776855Y-105431680D01*
X150776855Y-105431680D02*
X150655903Y-105371204D01*
X150655903Y-105371204D02*
X150474474Y-105371204D01*
X150474474Y-105371204D02*
X150353522Y-105431680D01*
X150353522Y-105431680D02*
X150293046Y-105492156D01*
X150293046Y-105492156D02*
X150232570Y-105613109D01*
X150232570Y-105613109D02*
X150232570Y-105975966D01*
X150232570Y-105975966D02*
X150293046Y-106096918D01*
X150293046Y-106096918D02*
X150353522Y-106157395D01*
X150353522Y-106157395D02*
X150474474Y-106217871D01*
X150474474Y-106217871D02*
X150655903Y-106217871D01*
X148781141Y-104887395D02*
X149869712Y-106520252D01*
X148357808Y-106217871D02*
X148357808Y-104947871D01*
X148357808Y-104947871D02*
X147873998Y-104947871D01*
X147873998Y-104947871D02*
X147753046Y-105008347D01*
X147753046Y-105008347D02*
X147692569Y-105068823D01*
X147692569Y-105068823D02*
X147632093Y-105189775D01*
X147632093Y-105189775D02*
X147632093Y-105371204D01*
X147632093Y-105371204D02*
X147692569Y-105492156D01*
X147692569Y-105492156D02*
X147753046Y-105552633D01*
X147753046Y-105552633D02*
X147873998Y-105613109D01*
X147873998Y-105613109D02*
X148357808Y-105613109D01*
X147087808Y-106217871D02*
X147087808Y-105371204D01*
X147087808Y-104947871D02*
X147148284Y-105008347D01*
X147148284Y-105008347D02*
X147087808Y-105068823D01*
X147087808Y-105068823D02*
X147027331Y-105008347D01*
X147027331Y-105008347D02*
X147087808Y-104947871D01*
X147087808Y-104947871D02*
X147087808Y-105068823D01*
X145938760Y-106157395D02*
X146059712Y-106217871D01*
X146059712Y-106217871D02*
X146301617Y-106217871D01*
X146301617Y-106217871D02*
X146422569Y-106157395D01*
X146422569Y-106157395D02*
X146483046Y-106096918D01*
X146483046Y-106096918D02*
X146543522Y-105975966D01*
X146543522Y-105975966D02*
X146543522Y-105613109D01*
X146543522Y-105613109D02*
X146483046Y-105492156D01*
X146483046Y-105492156D02*
X146422569Y-105431680D01*
X146422569Y-105431680D02*
X146301617Y-105371204D01*
X146301617Y-105371204D02*
X146059712Y-105371204D01*
X146059712Y-105371204D02*
X145938760Y-105431680D01*
X145213046Y-106217871D02*
X145333998Y-106157395D01*
X145333998Y-106157395D02*
X145394475Y-106096918D01*
X145394475Y-106096918D02*
X145454951Y-105975966D01*
X145454951Y-105975966D02*
X145454951Y-105613109D01*
X145454951Y-105613109D02*
X145394475Y-105492156D01*
X145394475Y-105492156D02*
X145333998Y-105431680D01*
X145333998Y-105431680D02*
X145213046Y-105371204D01*
X145213046Y-105371204D02*
X145031617Y-105371204D01*
X145031617Y-105371204D02*
X144910665Y-105431680D01*
X144910665Y-105431680D02*
X144850189Y-105492156D01*
X144850189Y-105492156D02*
X144789713Y-105613109D01*
X144789713Y-105613109D02*
X144789713Y-105975966D01*
X144789713Y-105975966D02*
X144850189Y-106096918D01*
X144850189Y-106096918D02*
X144910665Y-106157395D01*
X144910665Y-106157395D02*
X145031617Y-106217871D01*
X145031617Y-106217871D02*
X145213046Y-106217871D01*
X143640665Y-106217871D02*
X144245427Y-106217871D01*
X144245427Y-106217871D02*
X144245427Y-104947871D01*
X143035903Y-106217871D02*
X143156855Y-106157395D01*
X143156855Y-106157395D02*
X143217332Y-106096918D01*
X143217332Y-106096918D02*
X143277808Y-105975966D01*
X143277808Y-105975966D02*
X143277808Y-105613109D01*
X143277808Y-105613109D02*
X143217332Y-105492156D01*
X143217332Y-105492156D02*
X143156855Y-105431680D01*
X143156855Y-105431680D02*
X143035903Y-105371204D01*
X143035903Y-105371204D02*
X142854474Y-105371204D01*
X142854474Y-105371204D02*
X142733522Y-105431680D01*
X142733522Y-105431680D02*
X142673046Y-105492156D01*
X142673046Y-105492156D02*
X142612570Y-105613109D01*
X142612570Y-105613109D02*
X142612570Y-105975966D01*
X142612570Y-105975966D02*
X142673046Y-106096918D01*
X142673046Y-106096918D02*
X142733522Y-106157395D01*
X142733522Y-106157395D02*
X142854474Y-106217871D01*
X142854474Y-106217871D02*
X143035903Y-106217871D01*
X141523998Y-106217871D02*
X141523998Y-105552633D01*
X141523998Y-105552633D02*
X141584474Y-105431680D01*
X141584474Y-105431680D02*
X141705426Y-105371204D01*
X141705426Y-105371204D02*
X141947331Y-105371204D01*
X141947331Y-105371204D02*
X142068284Y-105431680D01*
X141523998Y-106157395D02*
X141644950Y-106217871D01*
X141644950Y-106217871D02*
X141947331Y-106217871D01*
X141947331Y-106217871D02*
X142068284Y-106157395D01*
X142068284Y-106157395D02*
X142128760Y-106036442D01*
X142128760Y-106036442D02*
X142128760Y-105915490D01*
X142128760Y-105915490D02*
X142068284Y-105794537D01*
X142068284Y-105794537D02*
X141947331Y-105734061D01*
X141947331Y-105734061D02*
X141644950Y-105734061D01*
X141644950Y-105734061D02*
X141523998Y-105673585D01*
X140374950Y-106217871D02*
X140374950Y-104947871D01*
X140374950Y-106157395D02*
X140495902Y-106217871D01*
X140495902Y-106217871D02*
X140737807Y-106217871D01*
X140737807Y-106217871D02*
X140858759Y-106157395D01*
X140858759Y-106157395D02*
X140919236Y-106096918D01*
X140919236Y-106096918D02*
X140979712Y-105975966D01*
X140979712Y-105975966D02*
X140979712Y-105613109D01*
X140979712Y-105613109D02*
X140919236Y-105492156D01*
X140919236Y-105492156D02*
X140858759Y-105431680D01*
X140858759Y-105431680D02*
X140737807Y-105371204D01*
X140737807Y-105371204D02*
X140495902Y-105371204D01*
X140495902Y-105371204D02*
X140374950Y-105431680D01*
X139286378Y-106157395D02*
X139407330Y-106217871D01*
X139407330Y-106217871D02*
X139649235Y-106217871D01*
X139649235Y-106217871D02*
X139770188Y-106157395D01*
X139770188Y-106157395D02*
X139830664Y-106036442D01*
X139830664Y-106036442D02*
X139830664Y-105552633D01*
X139830664Y-105552633D02*
X139770188Y-105431680D01*
X139770188Y-105431680D02*
X139649235Y-105371204D01*
X139649235Y-105371204D02*
X139407330Y-105371204D01*
X139407330Y-105371204D02*
X139286378Y-105431680D01*
X139286378Y-105431680D02*
X139225902Y-105552633D01*
X139225902Y-105552633D02*
X139225902Y-105673585D01*
X139225902Y-105673585D02*
X139830664Y-105794537D01*
X138681617Y-106217871D02*
X138681617Y-105371204D01*
X138681617Y-105613109D02*
X138621140Y-105492156D01*
X138621140Y-105492156D02*
X138560664Y-105431680D01*
X138560664Y-105431680D02*
X138439712Y-105371204D01*
X138439712Y-105371204D02*
X138318759Y-105371204D01*
D13*
X170233621Y-108507719D02*
X170233621Y-107507719D01*
X170233621Y-107507719D02*
X169852669Y-107507719D01*
X169852669Y-107507719D02*
X169757431Y-107555338D01*
X169757431Y-107555338D02*
X169709812Y-107602957D01*
X169709812Y-107602957D02*
X169662193Y-107698195D01*
X169662193Y-107698195D02*
X169662193Y-107841052D01*
X169662193Y-107841052D02*
X169709812Y-107936290D01*
X169709812Y-107936290D02*
X169757431Y-107983909D01*
X169757431Y-107983909D02*
X169852669Y-108031528D01*
X169852669Y-108031528D02*
X170233621Y-108031528D01*
X168662193Y-108412480D02*
X168709812Y-108460100D01*
X168709812Y-108460100D02*
X168852669Y-108507719D01*
X168852669Y-108507719D02*
X168947907Y-108507719D01*
X168947907Y-108507719D02*
X169090764Y-108460100D01*
X169090764Y-108460100D02*
X169186002Y-108364861D01*
X169186002Y-108364861D02*
X169233621Y-108269623D01*
X169233621Y-108269623D02*
X169281240Y-108079147D01*
X169281240Y-108079147D02*
X169281240Y-107936290D01*
X169281240Y-107936290D02*
X169233621Y-107745814D01*
X169233621Y-107745814D02*
X169186002Y-107650576D01*
X169186002Y-107650576D02*
X169090764Y-107555338D01*
X169090764Y-107555338D02*
X168947907Y-107507719D01*
X168947907Y-107507719D02*
X168852669Y-107507719D01*
X168852669Y-107507719D02*
X168709812Y-107555338D01*
X168709812Y-107555338D02*
X168662193Y-107602957D01*
X167900288Y-107983909D02*
X167757431Y-108031528D01*
X167757431Y-108031528D02*
X167709812Y-108079147D01*
X167709812Y-108079147D02*
X167662193Y-108174385D01*
X167662193Y-108174385D02*
X167662193Y-108317242D01*
X167662193Y-108317242D02*
X167709812Y-108412480D01*
X167709812Y-108412480D02*
X167757431Y-108460100D01*
X167757431Y-108460100D02*
X167852669Y-108507719D01*
X167852669Y-108507719D02*
X168233621Y-108507719D01*
X168233621Y-108507719D02*
X168233621Y-107507719D01*
X168233621Y-107507719D02*
X167900288Y-107507719D01*
X167900288Y-107507719D02*
X167805050Y-107555338D01*
X167805050Y-107555338D02*
X167757431Y-107602957D01*
X167757431Y-107602957D02*
X167709812Y-107698195D01*
X167709812Y-107698195D02*
X167709812Y-107793433D01*
X167709812Y-107793433D02*
X167757431Y-107888671D01*
X167757431Y-107888671D02*
X167805050Y-107936290D01*
X167805050Y-107936290D02*
X167900288Y-107983909D01*
X167900288Y-107983909D02*
X168233621Y-107983909D01*
X165995526Y-108507719D02*
X166471716Y-108507719D01*
X166471716Y-108507719D02*
X166471716Y-107507719D01*
X165233621Y-108507719D02*
X165233621Y-107983909D01*
X165233621Y-107983909D02*
X165281240Y-107888671D01*
X165281240Y-107888671D02*
X165376478Y-107841052D01*
X165376478Y-107841052D02*
X165566954Y-107841052D01*
X165566954Y-107841052D02*
X165662192Y-107888671D01*
X165233621Y-108460100D02*
X165328859Y-108507719D01*
X165328859Y-108507719D02*
X165566954Y-108507719D01*
X165566954Y-108507719D02*
X165662192Y-108460100D01*
X165662192Y-108460100D02*
X165709811Y-108364861D01*
X165709811Y-108364861D02*
X165709811Y-108269623D01*
X165709811Y-108269623D02*
X165662192Y-108174385D01*
X165662192Y-108174385D02*
X165566954Y-108126766D01*
X165566954Y-108126766D02*
X165328859Y-108126766D01*
X165328859Y-108126766D02*
X165233621Y-108079147D01*
X164852668Y-107841052D02*
X164614573Y-108507719D01*
X164376478Y-107841052D02*
X164614573Y-108507719D01*
X164614573Y-108507719D02*
X164709811Y-108745814D01*
X164709811Y-108745814D02*
X164757430Y-108793433D01*
X164757430Y-108793433D02*
X164852668Y-108841052D01*
X163852668Y-108507719D02*
X163947906Y-108460100D01*
X163947906Y-108460100D02*
X163995525Y-108412480D01*
X163995525Y-108412480D02*
X164043144Y-108317242D01*
X164043144Y-108317242D02*
X164043144Y-108031528D01*
X164043144Y-108031528D02*
X163995525Y-107936290D01*
X163995525Y-107936290D02*
X163947906Y-107888671D01*
X163947906Y-107888671D02*
X163852668Y-107841052D01*
X163852668Y-107841052D02*
X163709811Y-107841052D01*
X163709811Y-107841052D02*
X163614573Y-107888671D01*
X163614573Y-107888671D02*
X163566954Y-107936290D01*
X163566954Y-107936290D02*
X163519335Y-108031528D01*
X163519335Y-108031528D02*
X163519335Y-108317242D01*
X163519335Y-108317242D02*
X163566954Y-108412480D01*
X163566954Y-108412480D02*
X163614573Y-108460100D01*
X163614573Y-108460100D02*
X163709811Y-108507719D01*
X163709811Y-108507719D02*
X163852668Y-108507719D01*
X162662192Y-107841052D02*
X162662192Y-108507719D01*
X163090763Y-107841052D02*
X163090763Y-108364861D01*
X163090763Y-108364861D02*
X163043144Y-108460100D01*
X163043144Y-108460100D02*
X162947906Y-108507719D01*
X162947906Y-108507719D02*
X162805049Y-108507719D01*
X162805049Y-108507719D02*
X162709811Y-108460100D01*
X162709811Y-108460100D02*
X162662192Y-108412480D01*
X162328858Y-107841052D02*
X161947906Y-107841052D01*
X162186001Y-107507719D02*
X162186001Y-108364861D01*
X162186001Y-108364861D02*
X162138382Y-108460100D01*
X162138382Y-108460100D02*
X162043144Y-108507719D01*
X162043144Y-108507719D02*
X161947906Y-108507719D01*
X160519334Y-107983909D02*
X160376477Y-108031528D01*
X160376477Y-108031528D02*
X160328858Y-108079147D01*
X160328858Y-108079147D02*
X160281239Y-108174385D01*
X160281239Y-108174385D02*
X160281239Y-108317242D01*
X160281239Y-108317242D02*
X160328858Y-108412480D01*
X160328858Y-108412480D02*
X160376477Y-108460100D01*
X160376477Y-108460100D02*
X160471715Y-108507719D01*
X160471715Y-108507719D02*
X160852667Y-108507719D01*
X160852667Y-108507719D02*
X160852667Y-107507719D01*
X160852667Y-107507719D02*
X160519334Y-107507719D01*
X160519334Y-107507719D02*
X160424096Y-107555338D01*
X160424096Y-107555338D02*
X160376477Y-107602957D01*
X160376477Y-107602957D02*
X160328858Y-107698195D01*
X160328858Y-107698195D02*
X160328858Y-107793433D01*
X160328858Y-107793433D02*
X160376477Y-107888671D01*
X160376477Y-107888671D02*
X160424096Y-107936290D01*
X160424096Y-107936290D02*
X160519334Y-107983909D01*
X160519334Y-107983909D02*
X160852667Y-107983909D01*
X159947905Y-107841052D02*
X159709810Y-108507719D01*
X159471715Y-107841052D02*
X159709810Y-108507719D01*
X159709810Y-108507719D02*
X159805048Y-108745814D01*
X159805048Y-108745814D02*
X159852667Y-108793433D01*
X159852667Y-108793433D02*
X159947905Y-108841052D01*
X158376476Y-108460100D02*
X158281238Y-108507719D01*
X158281238Y-108507719D02*
X158090762Y-108507719D01*
X158090762Y-108507719D02*
X157995524Y-108460100D01*
X157995524Y-108460100D02*
X157947905Y-108364861D01*
X157947905Y-108364861D02*
X157947905Y-108317242D01*
X157947905Y-108317242D02*
X157995524Y-108222004D01*
X157995524Y-108222004D02*
X158090762Y-108174385D01*
X158090762Y-108174385D02*
X158233619Y-108174385D01*
X158233619Y-108174385D02*
X158328857Y-108126766D01*
X158328857Y-108126766D02*
X158376476Y-108031528D01*
X158376476Y-108031528D02*
X158376476Y-107983909D01*
X158376476Y-107983909D02*
X158328857Y-107888671D01*
X158328857Y-107888671D02*
X158233619Y-107841052D01*
X158233619Y-107841052D02*
X158090762Y-107841052D01*
X158090762Y-107841052D02*
X157995524Y-107888671D01*
X157519333Y-108507719D02*
X157519333Y-107841052D01*
X157519333Y-107507719D02*
X157566952Y-107555338D01*
X157566952Y-107555338D02*
X157519333Y-107602957D01*
X157519333Y-107602957D02*
X157471714Y-107555338D01*
X157471714Y-107555338D02*
X157519333Y-107507719D01*
X157519333Y-107507719D02*
X157519333Y-107602957D01*
X156900286Y-108507719D02*
X156995524Y-108460100D01*
X156995524Y-108460100D02*
X157043143Y-108364861D01*
X157043143Y-108364861D02*
X157043143Y-107507719D01*
X156614571Y-107841052D02*
X156376476Y-108507719D01*
X156376476Y-108507719D02*
X156138381Y-107841052D01*
X155376476Y-108460100D02*
X155471714Y-108507719D01*
X155471714Y-108507719D02*
X155662190Y-108507719D01*
X155662190Y-108507719D02*
X155757428Y-108460100D01*
X155757428Y-108460100D02*
X155805047Y-108364861D01*
X155805047Y-108364861D02*
X155805047Y-107983909D01*
X155805047Y-107983909D02*
X155757428Y-107888671D01*
X155757428Y-107888671D02*
X155662190Y-107841052D01*
X155662190Y-107841052D02*
X155471714Y-107841052D01*
X155471714Y-107841052D02*
X155376476Y-107888671D01*
X155376476Y-107888671D02*
X155328857Y-107983909D01*
X155328857Y-107983909D02*
X155328857Y-108079147D01*
X155328857Y-108079147D02*
X155805047Y-108174385D01*
X154900285Y-108507719D02*
X154900285Y-107841052D01*
X154900285Y-108031528D02*
X154852666Y-107936290D01*
X154852666Y-107936290D02*
X154805047Y-107888671D01*
X154805047Y-107888671D02*
X154709809Y-107841052D01*
X154709809Y-107841052D02*
X154614571Y-107841052D01*
X154328856Y-108460100D02*
X154233618Y-108507719D01*
X154233618Y-108507719D02*
X154043142Y-108507719D01*
X154043142Y-108507719D02*
X153947904Y-108460100D01*
X153947904Y-108460100D02*
X153900285Y-108364861D01*
X153900285Y-108364861D02*
X153900285Y-108317242D01*
X153900285Y-108317242D02*
X153947904Y-108222004D01*
X153947904Y-108222004D02*
X154043142Y-108174385D01*
X154043142Y-108174385D02*
X154185999Y-108174385D01*
X154185999Y-108174385D02*
X154281237Y-108126766D01*
X154281237Y-108126766D02*
X154328856Y-108031528D01*
X154328856Y-108031528D02*
X154328856Y-107983909D01*
X154328856Y-107983909D02*
X154281237Y-107888671D01*
X154281237Y-107888671D02*
X154185999Y-107841052D01*
X154185999Y-107841052D02*
X154043142Y-107841052D01*
X154043142Y-107841052D02*
X153947904Y-107888671D01*
X153614570Y-107841052D02*
X153233618Y-107841052D01*
X153471713Y-107507719D02*
X153471713Y-108364861D01*
X153471713Y-108364861D02*
X153424094Y-108460100D01*
X153424094Y-108460100D02*
X153328856Y-108507719D01*
X153328856Y-108507719D02*
X153233618Y-108507719D01*
X152519332Y-108460100D02*
X152614570Y-108507719D01*
X152614570Y-108507719D02*
X152805046Y-108507719D01*
X152805046Y-108507719D02*
X152900284Y-108460100D01*
X152900284Y-108460100D02*
X152947903Y-108364861D01*
X152947903Y-108364861D02*
X152947903Y-107983909D01*
X152947903Y-107983909D02*
X152900284Y-107888671D01*
X152900284Y-107888671D02*
X152805046Y-107841052D01*
X152805046Y-107841052D02*
X152614570Y-107841052D01*
X152614570Y-107841052D02*
X152519332Y-107888671D01*
X152519332Y-107888671D02*
X152471713Y-107983909D01*
X152471713Y-107983909D02*
X152471713Y-108079147D01*
X152471713Y-108079147D02*
X152947903Y-108174385D01*
X151662189Y-108460100D02*
X151757427Y-108507719D01*
X151757427Y-108507719D02*
X151947903Y-108507719D01*
X151947903Y-108507719D02*
X152043141Y-108460100D01*
X152043141Y-108460100D02*
X152090760Y-108364861D01*
X152090760Y-108364861D02*
X152090760Y-107983909D01*
X152090760Y-107983909D02*
X152043141Y-107888671D01*
X152043141Y-107888671D02*
X151947903Y-107841052D01*
X151947903Y-107841052D02*
X151757427Y-107841052D01*
X151757427Y-107841052D02*
X151662189Y-107888671D01*
X151662189Y-107888671D02*
X151614570Y-107983909D01*
X151614570Y-107983909D02*
X151614570Y-108079147D01*
X151614570Y-108079147D02*
X152090760Y-108174385D01*
X151043141Y-108507719D02*
X151138379Y-108460100D01*
X151138379Y-108460100D02*
X151185998Y-108364861D01*
X151185998Y-108364861D02*
X151185998Y-107507719D01*
X149185998Y-107460100D02*
X150043140Y-108745814D01*
X148090759Y-108507719D02*
X148090759Y-107507719D01*
X148090759Y-107507719D02*
X147757426Y-108222004D01*
X147757426Y-108222004D02*
X147424093Y-107507719D01*
X147424093Y-107507719D02*
X147424093Y-108507719D01*
X146947902Y-108507719D02*
X146947902Y-107841052D01*
X146947902Y-107507719D02*
X146995521Y-107555338D01*
X146995521Y-107555338D02*
X146947902Y-107602957D01*
X146947902Y-107602957D02*
X146900283Y-107555338D01*
X146900283Y-107555338D02*
X146947902Y-107507719D01*
X146947902Y-107507719D02*
X146947902Y-107602957D01*
X146614569Y-107841052D02*
X146233617Y-107841052D01*
X146471712Y-107507719D02*
X146471712Y-108364861D01*
X146471712Y-108364861D02*
X146424093Y-108460100D01*
X146424093Y-108460100D02*
X146328855Y-108507719D01*
X146328855Y-108507719D02*
X146233617Y-108507719D01*
X145471712Y-108460100D02*
X145566950Y-108507719D01*
X145566950Y-108507719D02*
X145757426Y-108507719D01*
X145757426Y-108507719D02*
X145852664Y-108460100D01*
X145852664Y-108460100D02*
X145900283Y-108412480D01*
X145900283Y-108412480D02*
X145947902Y-108317242D01*
X145947902Y-108317242D02*
X145947902Y-108031528D01*
X145947902Y-108031528D02*
X145900283Y-107936290D01*
X145900283Y-107936290D02*
X145852664Y-107888671D01*
X145852664Y-107888671D02*
X145757426Y-107841052D01*
X145757426Y-107841052D02*
X145566950Y-107841052D01*
X145566950Y-107841052D02*
X145471712Y-107888671D01*
X145043140Y-108507719D02*
X145043140Y-107507719D01*
X144614569Y-108507719D02*
X144614569Y-107983909D01*
X144614569Y-107983909D02*
X144662188Y-107888671D01*
X144662188Y-107888671D02*
X144757426Y-107841052D01*
X144757426Y-107841052D02*
X144900283Y-107841052D01*
X144900283Y-107841052D02*
X144995521Y-107888671D01*
X144995521Y-107888671D02*
X145043140Y-107936290D01*
X142805045Y-108412480D02*
X142852664Y-108460100D01*
X142852664Y-108460100D02*
X142995521Y-108507719D01*
X142995521Y-108507719D02*
X143090759Y-108507719D01*
X143090759Y-108507719D02*
X143233616Y-108460100D01*
X143233616Y-108460100D02*
X143328854Y-108364861D01*
X143328854Y-108364861D02*
X143376473Y-108269623D01*
X143376473Y-108269623D02*
X143424092Y-108079147D01*
X143424092Y-108079147D02*
X143424092Y-107936290D01*
X143424092Y-107936290D02*
X143376473Y-107745814D01*
X143376473Y-107745814D02*
X143328854Y-107650576D01*
X143328854Y-107650576D02*
X143233616Y-107555338D01*
X143233616Y-107555338D02*
X143090759Y-107507719D01*
X143090759Y-107507719D02*
X142995521Y-107507719D01*
X142995521Y-107507719D02*
X142852664Y-107555338D01*
X142852664Y-107555338D02*
X142805045Y-107602957D01*
X141947902Y-108507719D02*
X141947902Y-107983909D01*
X141947902Y-107983909D02*
X141995521Y-107888671D01*
X141995521Y-107888671D02*
X142090759Y-107841052D01*
X142090759Y-107841052D02*
X142281235Y-107841052D01*
X142281235Y-107841052D02*
X142376473Y-107888671D01*
X141947902Y-108460100D02*
X142043140Y-108507719D01*
X142043140Y-108507719D02*
X142281235Y-108507719D01*
X142281235Y-108507719D02*
X142376473Y-108460100D01*
X142376473Y-108460100D02*
X142424092Y-108364861D01*
X142424092Y-108364861D02*
X142424092Y-108269623D01*
X142424092Y-108269623D02*
X142376473Y-108174385D01*
X142376473Y-108174385D02*
X142281235Y-108126766D01*
X142281235Y-108126766D02*
X142043140Y-108126766D01*
X142043140Y-108126766D02*
X141947902Y-108079147D01*
X141471711Y-108507719D02*
X141471711Y-107841052D01*
X141471711Y-107507719D02*
X141519330Y-107555338D01*
X141519330Y-107555338D02*
X141471711Y-107602957D01*
X141471711Y-107602957D02*
X141424092Y-107555338D01*
X141424092Y-107555338D02*
X141471711Y-107507719D01*
X141471711Y-107507719D02*
X141471711Y-107602957D01*
X140995521Y-108507719D02*
X140995521Y-107841052D01*
X140995521Y-108031528D02*
X140947902Y-107936290D01*
X140947902Y-107936290D02*
X140900283Y-107888671D01*
X140900283Y-107888671D02*
X140805045Y-107841052D01*
X140805045Y-107841052D02*
X140709807Y-107841052D01*
X140376473Y-107841052D02*
X140376473Y-108507719D01*
X140376473Y-107936290D02*
X140328854Y-107888671D01*
X140328854Y-107888671D02*
X140233616Y-107841052D01*
X140233616Y-107841052D02*
X140090759Y-107841052D01*
X140090759Y-107841052D02*
X139995521Y-107888671D01*
X139995521Y-107888671D02*
X139947902Y-107983909D01*
X139947902Y-107983909D02*
X139947902Y-108507719D01*
X139519330Y-108460100D02*
X139424092Y-108507719D01*
X139424092Y-108507719D02*
X139233616Y-108507719D01*
X139233616Y-108507719D02*
X139138378Y-108460100D01*
X139138378Y-108460100D02*
X139090759Y-108364861D01*
X139090759Y-108364861D02*
X139090759Y-108317242D01*
X139090759Y-108317242D02*
X139138378Y-108222004D01*
X139138378Y-108222004D02*
X139233616Y-108174385D01*
X139233616Y-108174385D02*
X139376473Y-108174385D01*
X139376473Y-108174385D02*
X139471711Y-108126766D01*
X139471711Y-108126766D02*
X139519330Y-108031528D01*
X139519330Y-108031528D02*
X139519330Y-107983909D01*
X139519330Y-107983909D02*
X139471711Y-107888671D01*
X139471711Y-107888671D02*
X139376473Y-107841052D01*
X139376473Y-107841052D02*
X139233616Y-107841052D01*
X139233616Y-107841052D02*
X139138378Y-107888671D01*
D14*
G36*
X181062594Y-103689600D02*
G01*
X181740520Y-103689600D01*
X181874220Y-103678429D01*
X181962848Y-103649938D01*
X182019261Y-103608930D01*
X182051930Y-103555836D01*
X182063379Y-103486573D01*
X182050542Y-103408458D01*
X182013959Y-103348666D01*
X181950901Y-103302568D01*
X181851998Y-103270584D01*
X181702968Y-103258053D01*
X181627863Y-103259732D01*
X181627863Y-101740542D01*
X181766703Y-101825790D01*
X181820815Y-101843124D01*
X181910005Y-101826151D01*
X181987358Y-101774736D01*
X182040857Y-101699926D01*
X182058189Y-101615672D01*
X182047385Y-101557425D01*
X182011923Y-101494084D01*
X181943700Y-101422568D01*
X181750748Y-101282281D01*
X181542378Y-101114822D01*
X181453645Y-101061426D01*
X181371821Y-101031846D01*
X181294777Y-101022468D01*
X181227406Y-101034060D01*
X181181837Y-101065905D01*
X181152460Y-101120261D01*
X181141057Y-101207176D01*
X181158154Y-101780384D01*
X181170311Y-102189913D01*
X181175251Y-102835971D01*
X181175251Y-103249962D01*
X181062594Y-103249962D01*
X180970672Y-103266009D01*
X180896051Y-103313008D01*
X180845512Y-103383572D01*
X180828579Y-103469781D01*
X180845512Y-103555990D01*
X180896051Y-103626554D01*
X180970672Y-103673553D01*
X181062594Y-103689600D01*
G37*
G36*
X179642680Y-101014318D02*
G01*
X179793752Y-101040481D01*
X179930720Y-101070448D01*
X180017487Y-101114218D01*
X180068688Y-101168545D01*
X180092644Y-101235112D01*
X180101360Y-101330626D01*
X180101193Y-101457220D01*
X180092644Y-101689403D01*
X180092644Y-103499701D01*
X180084129Y-103561501D01*
X180057992Y-103621832D01*
X180011586Y-103682425D01*
X179953297Y-103730976D01*
X179892728Y-103758615D01*
X179827946Y-103767757D01*
X179516844Y-103757101D01*
X179248762Y-103727153D01*
X179018681Y-103680611D01*
X178821971Y-103619685D01*
X178646857Y-103536098D01*
X178475299Y-103416963D01*
X178359478Y-103305637D01*
X178283984Y-103198429D01*
X178241484Y-103093433D01*
X178229731Y-103003430D01*
X178693896Y-103003430D01*
X178704087Y-103041216D01*
X178743501Y-103082848D01*
X178830265Y-103131229D01*
X178991109Y-103186765D01*
X179329990Y-103264557D01*
X179628125Y-103298811D01*
X179628125Y-102663780D01*
X179163606Y-102675686D01*
X179033918Y-102704740D01*
X178886848Y-102770788D01*
X178773598Y-102849452D01*
X178714245Y-102925927D01*
X178693896Y-103003430D01*
X178229731Y-103003430D01*
X178227698Y-102987859D01*
X178242559Y-102873298D01*
X178289103Y-102754634D01*
X178372869Y-102628670D01*
X178464376Y-102528026D01*
X178562068Y-102448070D01*
X178666571Y-102386869D01*
X178542096Y-102259173D01*
X178470261Y-102152243D01*
X178431701Y-102059321D01*
X178407219Y-101949636D01*
X178398607Y-101821294D01*
X178871583Y-101821294D01*
X178884761Y-101923028D01*
X178922449Y-102006665D01*
X178985353Y-102076641D01*
X179078599Y-102134654D01*
X179210981Y-102179379D01*
X179394110Y-102206740D01*
X179481993Y-102207663D01*
X179628125Y-102194833D01*
X179626446Y-101835033D01*
X179628125Y-101471874D01*
X179363427Y-101468363D01*
X179247610Y-101481174D01*
X179135678Y-101519880D01*
X179025303Y-101586669D01*
X178933850Y-101670024D01*
X178886248Y-101747033D01*
X178871583Y-101821294D01*
X178398607Y-101821294D01*
X178398515Y-101819921D01*
X178412034Y-101680573D01*
X178451865Y-101552398D01*
X178518562Y-101432667D01*
X178614799Y-101319480D01*
X178745187Y-101211908D01*
X178898719Y-101118351D01*
X179051867Y-101053687D01*
X179206166Y-101015587D01*
X179363427Y-101002928D01*
X179642680Y-101014318D01*
G37*
G36*
X177306027Y-101936060D02*
G01*
X177466003Y-101978516D01*
X177607564Y-102047306D01*
X177733661Y-102143107D01*
X177846068Y-102268564D01*
X177941126Y-102421302D01*
X178006702Y-102582505D01*
X178044034Y-102754330D01*
X178052759Y-102939469D01*
X178030642Y-103133499D01*
X177979102Y-103300506D01*
X177899658Y-103445239D01*
X177791419Y-103571142D01*
X177671350Y-103666321D01*
X177542331Y-103733151D01*
X177402269Y-103773501D01*
X177248284Y-103787297D01*
X177091761Y-103774292D01*
X176952510Y-103736690D01*
X176827407Y-103675306D01*
X176714119Y-103589197D01*
X176611268Y-103475734D01*
X176519917Y-103331369D01*
X176454089Y-103172674D01*
X176413557Y-102997099D01*
X176408017Y-102919777D01*
X176857343Y-102919777D01*
X176877007Y-103048042D01*
X176921629Y-103152286D01*
X176990608Y-103237598D01*
X177068231Y-103293533D01*
X177153295Y-103326627D01*
X177248436Y-103337890D01*
X177326969Y-103328251D01*
X177397941Y-103299750D01*
X177463523Y-103251184D01*
X177526135Y-103171504D01*
X177565467Y-103069483D01*
X177579691Y-102938400D01*
X177567779Y-102797501D01*
X177533381Y-102672697D01*
X177477261Y-102561045D01*
X177408763Y-102474807D01*
X177332080Y-102416431D01*
X177245577Y-102381980D01*
X177146007Y-102370688D01*
X177058293Y-102384097D01*
X176988670Y-102421408D01*
X176932567Y-102484356D01*
X176889256Y-102580183D01*
X176861985Y-102720418D01*
X176857343Y-102919777D01*
X176408017Y-102919777D01*
X176399540Y-102801471D01*
X176411762Y-102620999D01*
X176446819Y-102461586D01*
X176503188Y-102320042D01*
X176580585Y-102193765D01*
X176691561Y-102073289D01*
X176816827Y-101989549D01*
X176959272Y-101938847D01*
X177123720Y-101921281D01*
X177306027Y-101936060D01*
G37*
G36*
X175366048Y-101920487D02*
G01*
X175553603Y-101975344D01*
X175726443Y-102066299D01*
X175887393Y-102196054D01*
X175998509Y-102320725D01*
X176082890Y-102452328D01*
X176142719Y-102592096D01*
X176178963Y-102741819D01*
X176191323Y-102903748D01*
X176176220Y-103126510D01*
X176134610Y-103306135D01*
X176070488Y-103450507D01*
X175985548Y-103565952D01*
X175876191Y-103658610D01*
X175740883Y-103727336D01*
X175574022Y-103771401D01*
X175368224Y-103787297D01*
X175281048Y-103778688D01*
X175165045Y-103748828D01*
X175041946Y-103703705D01*
X174888287Y-103635408D01*
X174767037Y-103732240D01*
X174688549Y-103776073D01*
X174639007Y-103787297D01*
X174553908Y-103772443D01*
X174479333Y-103727762D01*
X174427415Y-103660593D01*
X174410182Y-103578316D01*
X174476738Y-103411926D01*
X174553928Y-103238361D01*
X175011325Y-103238361D01*
X175098485Y-103298847D01*
X175189774Y-103341859D01*
X175286788Y-103368091D01*
X175390512Y-103376969D01*
X175493863Y-103363219D01*
X175573936Y-103324716D01*
X175636434Y-103261411D01*
X175678950Y-103179963D01*
X175707606Y-103067981D01*
X175718408Y-102916418D01*
X175707534Y-102800240D01*
X175675428Y-102692477D01*
X175621657Y-102591058D01*
X175544232Y-102494489D01*
X175450959Y-102412884D01*
X175353243Y-102356695D01*
X175249566Y-102323340D01*
X175137720Y-102312070D01*
X175092535Y-102319855D01*
X175031780Y-102344585D01*
X175054983Y-102503037D01*
X175062616Y-102628822D01*
X175051918Y-102856176D01*
X175011325Y-103238361D01*
X174553928Y-103238361D01*
X174555354Y-103235155D01*
X174587530Y-103069801D01*
X174601455Y-102768041D01*
X174592143Y-102527767D01*
X174565581Y-102356949D01*
X174536195Y-102307401D01*
X174526350Y-102249941D01*
X174538938Y-102187125D01*
X174579231Y-102124946D01*
X174656161Y-102060609D01*
X174784179Y-101993486D01*
X174929282Y-101939922D01*
X175053368Y-101910724D01*
X175159855Y-101901742D01*
X175366048Y-101920487D01*
G37*
G36*
X172737576Y-102460905D02*
G01*
X172760973Y-102583087D01*
X172807819Y-102660453D01*
X172876621Y-102705955D01*
X172974950Y-102722398D01*
X173072299Y-102707512D01*
X173135867Y-102667810D01*
X173175180Y-102602855D01*
X173190036Y-102502427D01*
X173198585Y-102331609D01*
X173347474Y-102368318D01*
X173474004Y-102425708D01*
X173581687Y-102503269D01*
X173672876Y-102602166D01*
X173748589Y-102725146D01*
X173746910Y-103581980D01*
X173763772Y-103671285D01*
X173813466Y-103742875D01*
X173887859Y-103790414D01*
X173982452Y-103806836D01*
X174049929Y-103798674D01*
X174103489Y-103775766D01*
X174146400Y-103738448D01*
X174186851Y-103669903D01*
X174201049Y-103581217D01*
X174201049Y-102461516D01*
X174197691Y-102303369D01*
X174194180Y-102145221D01*
X174179507Y-102056298D01*
X174137088Y-101985395D01*
X174069910Y-101938206D01*
X173973903Y-101921281D01*
X173886952Y-101934044D01*
X173823611Y-101969289D01*
X173777773Y-102027579D01*
X173748589Y-102115912D01*
X173591719Y-102017110D01*
X173428847Y-101947686D01*
X173258153Y-101906042D01*
X173077379Y-101891972D01*
X172973711Y-101904417D01*
X172892907Y-101939068D01*
X172829450Y-101995192D01*
X172780875Y-102076416D01*
X172748231Y-102190097D01*
X172735897Y-102346416D01*
X172737576Y-102460905D01*
G37*
G36*
X171051334Y-100977079D02*
G01*
X171114303Y-101013466D01*
X171158767Y-101073760D01*
X171185260Y-101165808D01*
X171210776Y-101433539D01*
X171238231Y-101971962D01*
X171317073Y-101924812D01*
X171412406Y-101889988D01*
X171516976Y-101869859D01*
X171641231Y-101862663D01*
X171807128Y-101874704D01*
X171955360Y-101909465D01*
X172088749Y-101965848D01*
X172209547Y-102044046D01*
X172319310Y-102145527D01*
X172430306Y-102293700D01*
X172510883Y-102463846D01*
X172561158Y-102660105D01*
X172578818Y-102887872D01*
X172561912Y-103076632D01*
X172513129Y-103242793D01*
X172433399Y-103390679D01*
X172320990Y-103523362D01*
X172187470Y-103629651D01*
X172039205Y-103705324D01*
X171873266Y-103751695D01*
X171685653Y-103767757D01*
X171553714Y-103762347D01*
X171427671Y-103746386D01*
X171306137Y-103713222D01*
X171186940Y-103654948D01*
X171137926Y-103718332D01*
X171076655Y-103755016D01*
X170999025Y-103767757D01*
X170914213Y-103752469D01*
X170840267Y-103706391D01*
X170789128Y-103637090D01*
X170771879Y-103550228D01*
X170777069Y-103500159D01*
X170803810Y-103242922D01*
X170816301Y-102681792D01*
X170811288Y-102506854D01*
X171272272Y-102506854D01*
X171272272Y-103134405D01*
X171328600Y-103187528D01*
X171433225Y-103266255D01*
X171485832Y-103297284D01*
X171562504Y-103319212D01*
X171685653Y-103328120D01*
X171801107Y-103313530D01*
X171905915Y-103270238D01*
X172003321Y-103196076D01*
X172079856Y-103101101D01*
X172124716Y-102996583D01*
X172139945Y-102878866D01*
X172123622Y-102687139D01*
X172079877Y-102544411D01*
X172013549Y-102439229D01*
X171945656Y-102377304D01*
X171862234Y-102331851D01*
X171759978Y-102302923D01*
X171634362Y-102292530D01*
X171515866Y-102306393D01*
X171419123Y-102345653D01*
X171338528Y-102411009D01*
X171272272Y-102506854D01*
X170811288Y-102506854D01*
X170808247Y-102400709D01*
X170777985Y-101935936D01*
X170747603Y-101471161D01*
X170739517Y-101190079D01*
X170755110Y-101101902D01*
X170801036Y-101029490D01*
X170871167Y-100980747D01*
X170963305Y-100963849D01*
X171051334Y-100977079D01*
G37*
G36*
X170027702Y-101010713D02*
G01*
X170188292Y-101033764D01*
X170270699Y-101042358D01*
X170334701Y-101080186D01*
X170385645Y-101151802D01*
X170422347Y-101271209D01*
X170437572Y-101459204D01*
X170471766Y-102247040D01*
X170498754Y-102734542D01*
X170505960Y-103031365D01*
X170505960Y-103508249D01*
X170490001Y-103592322D01*
X170441999Y-103663801D01*
X170370249Y-103712183D01*
X170280493Y-103728678D01*
X170190908Y-103712119D01*
X170119904Y-103663649D01*
X170072512Y-103592186D01*
X170056706Y-103507791D01*
X170046478Y-102720261D01*
X169902985Y-102732168D01*
X169692570Y-102717224D01*
X169502362Y-102673885D01*
X169329168Y-102603309D01*
X169170410Y-102505174D01*
X169043910Y-102393071D01*
X168948102Y-102269543D01*
X168879908Y-102133107D01*
X168838170Y-101981188D01*
X168823737Y-101810303D01*
X168823810Y-101809540D01*
X169272839Y-101809540D01*
X169284727Y-101915621D01*
X169319288Y-102008621D01*
X169376937Y-102091595D01*
X169460753Y-102166287D01*
X169583728Y-102234640D01*
X169729359Y-102277393D01*
X169902985Y-102292530D01*
X170019153Y-102278944D01*
X169986791Y-101688335D01*
X169985112Y-101447755D01*
X169914282Y-101443481D01*
X169817653Y-101442565D01*
X169687637Y-101454754D01*
X169565427Y-101490940D01*
X169448846Y-101551864D01*
X169345201Y-101636804D01*
X169290242Y-101721472D01*
X169272839Y-101809540D01*
X168823810Y-101809540D01*
X168836403Y-101677190D01*
X168873833Y-101553648D01*
X168936629Y-101437242D01*
X169027271Y-101326231D01*
X169149954Y-101219694D01*
X169302794Y-101123036D01*
X169457343Y-101055946D01*
X169615228Y-101016206D01*
X169778422Y-101002928D01*
X170027702Y-101010713D01*
G37*
G36*
X168181226Y-101637960D02*
G01*
X168283306Y-101619514D01*
X168370819Y-101564229D01*
X168415811Y-101510752D01*
X168442156Y-101451397D01*
X168451114Y-101383947D01*
X168442153Y-101316503D01*
X168415806Y-101257201D01*
X168370819Y-101203818D01*
X168313777Y-101162613D01*
X168251228Y-101138233D01*
X168181226Y-101129934D01*
X168111252Y-101138251D01*
X168049022Y-101162645D01*
X167992548Y-101203818D01*
X167948116Y-101257135D01*
X167922046Y-101316440D01*
X167913169Y-101383947D01*
X167922043Y-101451459D01*
X167948111Y-101510818D01*
X167992548Y-101564229D01*
X168049012Y-101605311D01*
X168111242Y-101629657D01*
X168181226Y-101637960D01*
G37*
G36*
X168036054Y-102888178D02*
G01*
X168030101Y-103200045D01*
X168024147Y-103511913D01*
X168041113Y-103602678D01*
X168090856Y-103674640D01*
X168165237Y-103722061D01*
X168259842Y-103738448D01*
X168354472Y-103722066D01*
X168428980Y-103674640D01*
X168478604Y-103602690D01*
X168495536Y-103511913D01*
X168501489Y-103200045D01*
X168507443Y-102888178D01*
X168490346Y-102508380D01*
X168473249Y-102128277D01*
X168456312Y-102037526D01*
X168406693Y-101965703D01*
X168332173Y-101918159D01*
X168237554Y-101901742D01*
X168142962Y-101918164D01*
X168068569Y-101965703D01*
X168018831Y-102037539D01*
X168001860Y-102128277D01*
X168018957Y-102508380D01*
X168036054Y-102888178D01*
G37*
G36*
X166805528Y-103797066D02*
G01*
X166991212Y-103782867D01*
X167155953Y-103741949D01*
X167303251Y-103675586D01*
X167435827Y-103583354D01*
X167553290Y-103461332D01*
X167635948Y-103323898D01*
X167686376Y-103167914D01*
X167703884Y-102988623D01*
X167690061Y-102824348D01*
X167647432Y-102653998D01*
X167573178Y-102475301D01*
X167463152Y-102286119D01*
X167340000Y-102125640D01*
X167216283Y-102010310D01*
X167091119Y-101932622D01*
X166962583Y-101887454D01*
X166827815Y-101872433D01*
X166711030Y-101881777D01*
X166573996Y-101912225D01*
X166412908Y-101968145D01*
X166268294Y-102040446D01*
X166182382Y-102109010D01*
X166137975Y-102174459D01*
X166124243Y-102239866D01*
X166138606Y-102318581D01*
X166182251Y-102388548D01*
X166252285Y-102440898D01*
X166341161Y-102458616D01*
X166415388Y-102441935D01*
X166517932Y-102380458D01*
X166591097Y-102339815D01*
X166691642Y-102312558D01*
X166827815Y-102302300D01*
X166884399Y-102313802D01*
X166948371Y-102352563D01*
X167023558Y-102429338D01*
X167112969Y-102559518D01*
X167200030Y-102730689D01*
X167246010Y-102871753D01*
X167259820Y-102988928D01*
X167244768Y-103101908D01*
X167201789Y-103193947D01*
X167130066Y-103270112D01*
X167043173Y-103322357D01*
X166936659Y-103355366D01*
X166805528Y-103367199D01*
X166687513Y-103348011D01*
X166525565Y-103279272D01*
X166372348Y-103206165D01*
X166315516Y-103191344D01*
X166229999Y-103208030D01*
X166157521Y-103258358D01*
X166107800Y-103330832D01*
X166091728Y-103411010D01*
X166104442Y-103467032D01*
X166147337Y-103528159D01*
X166233474Y-103598017D01*
X166382072Y-103678609D01*
X166559523Y-103749549D01*
X166698079Y-103786316D01*
X166805528Y-103797066D01*
G37*
G36*
X165147618Y-101936060D02*
G01*
X165307594Y-101978516D01*
X165449155Y-102047306D01*
X165575252Y-102143107D01*
X165687659Y-102268564D01*
X165782717Y-102421302D01*
X165848293Y-102582505D01*
X165885625Y-102754330D01*
X165894350Y-102939469D01*
X165872233Y-103133499D01*
X165820693Y-103300506D01*
X165741249Y-103445239D01*
X165633010Y-103571142D01*
X165512941Y-103666321D01*
X165383922Y-103733151D01*
X165243860Y-103773501D01*
X165089875Y-103787297D01*
X164933352Y-103774292D01*
X164794101Y-103736690D01*
X164668999Y-103675306D01*
X164555710Y-103589197D01*
X164452859Y-103475734D01*
X164361508Y-103331369D01*
X164295680Y-103172674D01*
X164255148Y-102997099D01*
X164249608Y-102919777D01*
X164698934Y-102919777D01*
X164718598Y-103048042D01*
X164763220Y-103152286D01*
X164832199Y-103237598D01*
X164909822Y-103293533D01*
X164994886Y-103326627D01*
X165090027Y-103337890D01*
X165168560Y-103328251D01*
X165239532Y-103299750D01*
X165305114Y-103251184D01*
X165367726Y-103171504D01*
X165407058Y-103069483D01*
X165421282Y-102938400D01*
X165409370Y-102797501D01*
X165374972Y-102672697D01*
X165318852Y-102561045D01*
X165250354Y-102474807D01*
X165173671Y-102416431D01*
X165087168Y-102381980D01*
X164987598Y-102370688D01*
X164899884Y-102384097D01*
X164830261Y-102421408D01*
X164774158Y-102484356D01*
X164730847Y-102580183D01*
X164703576Y-102720418D01*
X164698934Y-102919777D01*
X164249608Y-102919777D01*
X164241131Y-102801471D01*
X164253353Y-102620999D01*
X164288410Y-102461586D01*
X164344779Y-102320042D01*
X164422176Y-102193765D01*
X164533153Y-102073289D01*
X164658418Y-101989549D01*
X164800863Y-101938847D01*
X164965311Y-101921281D01*
X165147618Y-101936060D01*
G37*
G36*
X162349012Y-103630981D02*
G01*
X162579551Y-103705278D01*
X162972442Y-103783633D01*
X163342232Y-103832106D01*
X163606099Y-103845915D01*
X163745509Y-103833555D01*
X163848725Y-103800435D01*
X163924326Y-103750098D01*
X163978077Y-103682523D01*
X164012107Y-103594147D01*
X164024518Y-103478482D01*
X163990324Y-102936721D01*
X163957581Y-102174254D01*
X163945902Y-101285945D01*
X163928975Y-101195658D01*
X163878430Y-101120165D01*
X163802922Y-101069158D01*
X163708529Y-101051777D01*
X163614016Y-101069167D01*
X163537864Y-101120317D01*
X163486611Y-101195903D01*
X163469476Y-101286250D01*
X163481507Y-102180952D01*
X163515577Y-102967404D01*
X163547939Y-103386738D01*
X163279845Y-103365893D01*
X162938585Y-103304896D01*
X162509602Y-103193176D01*
X162434497Y-103181574D01*
X162366390Y-103190569D01*
X162309226Y-103216533D01*
X162260321Y-103260190D01*
X162215231Y-103335087D01*
X162200482Y-103417421D01*
X162216780Y-103505918D01*
X162264365Y-103575568D01*
X162349012Y-103630981D01*
G37*
G36*
X161381393Y-101936060D02*
G01*
X161541369Y-101978516D01*
X161682930Y-102047306D01*
X161809027Y-102143107D01*
X161921434Y-102268564D01*
X162016492Y-102421302D01*
X162082068Y-102582505D01*
X162119400Y-102754330D01*
X162128125Y-102939469D01*
X162106008Y-103133499D01*
X162054469Y-103300506D01*
X161975024Y-103445239D01*
X161866785Y-103571142D01*
X161746717Y-103666321D01*
X161617698Y-103733151D01*
X161477636Y-103773501D01*
X161323650Y-103787297D01*
X161167128Y-103774292D01*
X161027876Y-103736690D01*
X160902774Y-103675306D01*
X160789486Y-103589197D01*
X160686634Y-103475734D01*
X160595283Y-103331369D01*
X160529456Y-103172674D01*
X160488923Y-102997099D01*
X160483383Y-102919777D01*
X160932709Y-102919777D01*
X160952373Y-103048042D01*
X160996996Y-103152286D01*
X161065974Y-103237598D01*
X161143597Y-103293533D01*
X161228662Y-103326627D01*
X161323803Y-103337890D01*
X161402335Y-103328251D01*
X161473308Y-103299750D01*
X161538889Y-103251184D01*
X161601501Y-103171504D01*
X161640833Y-103069483D01*
X161655057Y-102938400D01*
X161643145Y-102797501D01*
X161608747Y-102672697D01*
X161552628Y-102561045D01*
X161484130Y-102474807D01*
X161407447Y-102416431D01*
X161320944Y-102381980D01*
X161221373Y-102370688D01*
X161133659Y-102384097D01*
X161064036Y-102421408D01*
X161007933Y-102484356D01*
X160964623Y-102580183D01*
X160937351Y-102720418D01*
X160932709Y-102919777D01*
X160483383Y-102919777D01*
X160474906Y-102801471D01*
X160487128Y-102620999D01*
X160522185Y-102461586D01*
X160578555Y-102320042D01*
X160655951Y-102193765D01*
X160766928Y-102073289D01*
X160892193Y-101989549D01*
X161034639Y-101938847D01*
X161199086Y-101921281D01*
X161381393Y-101936060D01*
G37*
G36*
X159441414Y-101920487D02*
G01*
X159628969Y-101975344D01*
X159801809Y-102066299D01*
X159962759Y-102196054D01*
X160073875Y-102320725D01*
X160158256Y-102452328D01*
X160218085Y-102592096D01*
X160254330Y-102741819D01*
X160266689Y-102903748D01*
X160251586Y-103126510D01*
X160209976Y-103306135D01*
X160145855Y-103450507D01*
X160060915Y-103565952D01*
X159951558Y-103658610D01*
X159816249Y-103727336D01*
X159649388Y-103771401D01*
X159443591Y-103787297D01*
X159356414Y-103778688D01*
X159240411Y-103748828D01*
X159117312Y-103703705D01*
X158963654Y-103635408D01*
X158842403Y-103732240D01*
X158763915Y-103776073D01*
X158714373Y-103787297D01*
X158629275Y-103772443D01*
X158554699Y-103727762D01*
X158502782Y-103660593D01*
X158485548Y-103578316D01*
X158552104Y-103411926D01*
X158629294Y-103238361D01*
X159086691Y-103238361D01*
X159173851Y-103298847D01*
X159265141Y-103341859D01*
X159362154Y-103368091D01*
X159465878Y-103376969D01*
X159569230Y-103363219D01*
X159649302Y-103324716D01*
X159711800Y-103261411D01*
X159754317Y-103179963D01*
X159782973Y-103067981D01*
X159793774Y-102916418D01*
X159782901Y-102800240D01*
X159750795Y-102692477D01*
X159697024Y-102591058D01*
X159619598Y-102494489D01*
X159526325Y-102412884D01*
X159428609Y-102356695D01*
X159324933Y-102323340D01*
X159213087Y-102312070D01*
X159167902Y-102319855D01*
X159107146Y-102344585D01*
X159130349Y-102503037D01*
X159137982Y-102628822D01*
X159127284Y-102856176D01*
X159086691Y-103238361D01*
X158629294Y-103238361D01*
X158630720Y-103235155D01*
X158662897Y-103069801D01*
X158676821Y-102768041D01*
X158667509Y-102527767D01*
X158640948Y-102356949D01*
X158611561Y-102307401D01*
X158601716Y-102249941D01*
X158614304Y-102187125D01*
X158654597Y-102124946D01*
X158731527Y-102060609D01*
X158859545Y-101993486D01*
X159004648Y-101939922D01*
X159128735Y-101910724D01*
X159235221Y-101901742D01*
X159441414Y-101920487D01*
G37*
G36*
X156807091Y-100977079D02*
G01*
X156870060Y-101013466D01*
X156914524Y-101073760D01*
X156941017Y-101165808D01*
X156966533Y-101433539D01*
X156993988Y-101971962D01*
X157072830Y-101924812D01*
X157168163Y-101889988D01*
X157272733Y-101869859D01*
X157396988Y-101862663D01*
X157562885Y-101874704D01*
X157711117Y-101909465D01*
X157844506Y-101965848D01*
X157965304Y-102044046D01*
X158075068Y-102145527D01*
X158186063Y-102293700D01*
X158266641Y-102463846D01*
X158316916Y-102660105D01*
X158334576Y-102887872D01*
X158317669Y-103076632D01*
X158268886Y-103242793D01*
X158189156Y-103390679D01*
X158076747Y-103523362D01*
X157943227Y-103629651D01*
X157794963Y-103705324D01*
X157629023Y-103751695D01*
X157441410Y-103767757D01*
X157309471Y-103762347D01*
X157183429Y-103746386D01*
X157061894Y-103713222D01*
X156942697Y-103654948D01*
X156893683Y-103718332D01*
X156832412Y-103755016D01*
X156754782Y-103767757D01*
X156669970Y-103752469D01*
X156596024Y-103706391D01*
X156544885Y-103637090D01*
X156527636Y-103550228D01*
X156532827Y-103500159D01*
X156559567Y-103242922D01*
X156572058Y-102681792D01*
X156567046Y-102506854D01*
X157028029Y-102506854D01*
X157028029Y-103134405D01*
X157084358Y-103187528D01*
X157188982Y-103266255D01*
X157241589Y-103297284D01*
X157318261Y-103319212D01*
X157441410Y-103328120D01*
X157556864Y-103313530D01*
X157661672Y-103270238D01*
X157759078Y-103196076D01*
X157835613Y-103101101D01*
X157880474Y-102996583D01*
X157895702Y-102878866D01*
X157879379Y-102687139D01*
X157835634Y-102544411D01*
X157769306Y-102439229D01*
X157701413Y-102377304D01*
X157617991Y-102331851D01*
X157515735Y-102302923D01*
X157390119Y-102292530D01*
X157271623Y-102306393D01*
X157174880Y-102345653D01*
X157094285Y-102411009D01*
X157028029Y-102506854D01*
X156567046Y-102506854D01*
X156564005Y-102400709D01*
X156533743Y-101935936D01*
X156503360Y-101471161D01*
X156495274Y-101190079D01*
X156510868Y-101101902D01*
X156556793Y-101029490D01*
X156626924Y-100980747D01*
X156719062Y-100963849D01*
X156807091Y-100977079D01*
G37*
G36*
X155543307Y-101915634D02*
G01*
X155692534Y-101955766D01*
X155826327Y-102021208D01*
X155947218Y-102112905D01*
X156056706Y-102233607D01*
X156154358Y-102388202D01*
X156225010Y-102559644D01*
X156268692Y-102750882D01*
X156283852Y-102965572D01*
X156271531Y-103120333D01*
X156236228Y-103255471D01*
X156179218Y-103374380D01*
X156100108Y-103479637D01*
X155996866Y-103572821D01*
X155863329Y-103655367D01*
X155709964Y-103716117D01*
X155533313Y-103754312D01*
X155329167Y-103767757D01*
X155152549Y-103756348D01*
X154983980Y-103722544D01*
X154821905Y-103666396D01*
X154684134Y-103592407D01*
X154598586Y-103516155D01*
X154551894Y-103437194D01*
X154536752Y-103352239D01*
X154548673Y-103275252D01*
X154580562Y-103224795D01*
X154632968Y-103193453D01*
X154714286Y-103181574D01*
X154804030Y-103198844D01*
X154941432Y-103264464D01*
X155051015Y-103314693D01*
X155179005Y-103346271D01*
X155329167Y-103357429D01*
X155473793Y-103344674D01*
X155595545Y-103308581D01*
X155703020Y-103247627D01*
X155793687Y-103162035D01*
X155218190Y-102909854D01*
X154955224Y-102786596D01*
X154833965Y-102716750D01*
X154735947Y-102636102D01*
X154672045Y-102555285D01*
X154635820Y-102472981D01*
X154623916Y-102386717D01*
X154625255Y-102376489D01*
X155076529Y-102376489D01*
X155226391Y-102463024D01*
X155443656Y-102567914D01*
X155827881Y-102732168D01*
X155773823Y-102596244D01*
X155713220Y-102493213D01*
X155646988Y-102417094D01*
X155566662Y-102358739D01*
X155477133Y-102323980D01*
X155375421Y-102312070D01*
X155253591Y-102320137D01*
X155155398Y-102342339D01*
X155076529Y-102376489D01*
X154625255Y-102376489D01*
X154640161Y-102262670D01*
X154686923Y-102159149D01*
X154765342Y-102071139D01*
X154881745Y-101996691D01*
X155016077Y-101946130D01*
X155178734Y-101913490D01*
X155375268Y-101901742D01*
X155543307Y-101915634D01*
G37*
G36*
X152802475Y-102460905D02*
G01*
X152825872Y-102583087D01*
X152872718Y-102660453D01*
X152941519Y-102705955D01*
X153039849Y-102722398D01*
X153137198Y-102707512D01*
X153200766Y-102667810D01*
X153240079Y-102602855D01*
X153254935Y-102502427D01*
X153263483Y-102331609D01*
X153412373Y-102368318D01*
X153538903Y-102425708D01*
X153646586Y-102503269D01*
X153737775Y-102602166D01*
X153813488Y-102725146D01*
X153811809Y-103581980D01*
X153828671Y-103671285D01*
X153878365Y-103742875D01*
X153952758Y-103790414D01*
X154047350Y-103806836D01*
X154114828Y-103798674D01*
X154168388Y-103775766D01*
X154211298Y-103738448D01*
X154251750Y-103669903D01*
X154265948Y-103581217D01*
X154265948Y-102461516D01*
X154262589Y-102303369D01*
X154259078Y-102145221D01*
X154244405Y-102056298D01*
X154201987Y-101985395D01*
X154134808Y-101938206D01*
X154038802Y-101921281D01*
X153951851Y-101934044D01*
X153888510Y-101969289D01*
X153842672Y-102027579D01*
X153813488Y-102115912D01*
X153656618Y-102017110D01*
X153493746Y-101947686D01*
X153323052Y-101906042D01*
X153142278Y-101891972D01*
X153038610Y-101904417D01*
X152957805Y-101939068D01*
X152894349Y-101995192D01*
X152845774Y-102076416D01*
X152813130Y-102190097D01*
X152800796Y-102346416D01*
X152802475Y-102460905D01*
G37*
G36*
X149407194Y-101550032D02*
G01*
X149494206Y-101536293D01*
X149642509Y-101502139D01*
X149820341Y-101479886D01*
X150032303Y-101471874D01*
X150272272Y-101486529D01*
X150573606Y-101530493D01*
X150573606Y-102087366D01*
X150323866Y-102041752D01*
X150143281Y-102028748D01*
X149835704Y-102036638D01*
X149589918Y-102058057D01*
X149489150Y-102085051D01*
X149423498Y-102131794D01*
X149384004Y-102198583D01*
X149369642Y-102292530D01*
X149387289Y-102384660D01*
X149439709Y-102459837D01*
X149516911Y-102510046D01*
X149610374Y-102527004D01*
X149876904Y-102512349D01*
X150143281Y-102497694D01*
X150289316Y-102511132D01*
X150573606Y-102566082D01*
X150573606Y-103641819D01*
X150582271Y-103704651D01*
X150607723Y-103759378D01*
X150651306Y-103808210D01*
X150734976Y-103858548D01*
X150829756Y-103875224D01*
X150920420Y-103858332D01*
X150990346Y-103809278D01*
X151036038Y-103735796D01*
X151051864Y-103642430D01*
X151051864Y-101680549D01*
X151049269Y-101478591D01*
X151046674Y-101276480D01*
X151029571Y-101183448D01*
X150979355Y-101108869D01*
X150903948Y-101059056D01*
X150809301Y-101042007D01*
X150747185Y-101048627D01*
X150694965Y-101067500D01*
X150331195Y-101018499D01*
X150032303Y-101002928D01*
X149826822Y-101020184D01*
X149542138Y-101080933D01*
X149345960Y-101145873D01*
X149237558Y-101205890D01*
X149186270Y-101260351D01*
X149171500Y-101312201D01*
X149188742Y-101402803D01*
X149240651Y-101479965D01*
X149316978Y-101532564D01*
X149407194Y-101550032D01*
G37*
G36*
X148387938Y-103442304D02*
G01*
X148400157Y-103573635D01*
X148431748Y-103662437D01*
X148478342Y-103720594D01*
X148540515Y-103755329D01*
X148623633Y-103767757D01*
X148718153Y-103751065D01*
X148792771Y-103702575D01*
X148842258Y-103629194D01*
X148859327Y-103534811D01*
X148859327Y-101165350D01*
X148851142Y-101102329D01*
X148827447Y-101048871D01*
X148787581Y-101002623D01*
X148712439Y-100959327D01*
X148618442Y-100944310D01*
X148525339Y-100960028D01*
X148452815Y-101005218D01*
X148404633Y-101074466D01*
X148387938Y-101165350D01*
X148387938Y-103442304D01*
G37*
G36*
X147309880Y-101915634D02*
G01*
X147459107Y-101955766D01*
X147592901Y-102021208D01*
X147713791Y-102112905D01*
X147823279Y-102233607D01*
X147920931Y-102388202D01*
X147991584Y-102559644D01*
X148035265Y-102750882D01*
X148050425Y-102965572D01*
X148038104Y-103120333D01*
X148002801Y-103255471D01*
X147945792Y-103374380D01*
X147866681Y-103479637D01*
X147763440Y-103572821D01*
X147629903Y-103655367D01*
X147476538Y-103716117D01*
X147299887Y-103754312D01*
X147095741Y-103767757D01*
X146919123Y-103756348D01*
X146750554Y-103722544D01*
X146588479Y-103666396D01*
X146450707Y-103592407D01*
X146365160Y-103516155D01*
X146318468Y-103437194D01*
X146303326Y-103352239D01*
X146315246Y-103275252D01*
X146347136Y-103224795D01*
X146399541Y-103193453D01*
X146480860Y-103181574D01*
X146570603Y-103198844D01*
X146708005Y-103264464D01*
X146817588Y-103314693D01*
X146945578Y-103346271D01*
X147095741Y-103357429D01*
X147240367Y-103344674D01*
X147362118Y-103308581D01*
X147469593Y-103247627D01*
X147560260Y-103162035D01*
X146984763Y-102909854D01*
X146721798Y-102786596D01*
X146600539Y-102716750D01*
X146502521Y-102636102D01*
X146438618Y-102555285D01*
X146402393Y-102472981D01*
X146390490Y-102386717D01*
X146391829Y-102376489D01*
X146843102Y-102376489D01*
X146992964Y-102463024D01*
X147210230Y-102567914D01*
X147594454Y-102732168D01*
X147540397Y-102596244D01*
X147479793Y-102493213D01*
X147413562Y-102417094D01*
X147333236Y-102358739D01*
X147243707Y-102323980D01*
X147141994Y-102312070D01*
X147020164Y-102320137D01*
X146921972Y-102342339D01*
X146843102Y-102376489D01*
X146391829Y-102376489D01*
X146406735Y-102262670D01*
X146453496Y-102159149D01*
X146531916Y-102071139D01*
X146648319Y-101996691D01*
X146782651Y-101946130D01*
X146945308Y-101913490D01*
X147141842Y-101901742D01*
X147309880Y-101915634D01*
G37*
G36*
X144317937Y-102305048D02*
G01*
X144569049Y-102524866D01*
X144830236Y-102766819D01*
X144309388Y-103406125D01*
X144266165Y-103478373D01*
X144253060Y-103544886D01*
X144270553Y-103627492D01*
X144324806Y-103700896D01*
X144402315Y-103751305D01*
X144488754Y-103767757D01*
X144549084Y-103758962D01*
X144605398Y-103732325D01*
X144659571Y-103685325D01*
X144836151Y-103482087D01*
X145166680Y-103079603D01*
X145595327Y-103482909D01*
X145735461Y-103610984D01*
X145789332Y-103655754D01*
X145845072Y-103681198D01*
X145904446Y-103689600D01*
X145990885Y-103673178D01*
X146067631Y-103623043D01*
X146121170Y-103549880D01*
X146138462Y-103467491D01*
X146126170Y-103406217D01*
X146083757Y-103332231D01*
X145998480Y-103240193D01*
X145773013Y-103047088D01*
X145448476Y-102727588D01*
X145641427Y-102461058D01*
X145761380Y-102315407D01*
X145863536Y-102216662D01*
X145914727Y-102163038D01*
X145943132Y-102108435D01*
X145952379Y-102050883D01*
X145935874Y-101967817D01*
X145884907Y-101892888D01*
X145810500Y-101840784D01*
X145723401Y-101823584D01*
X145649423Y-101842224D01*
X145542979Y-101913052D01*
X145388789Y-102067980D01*
X145115542Y-102419995D01*
X144823519Y-102174989D01*
X144658691Y-102020153D01*
X144563859Y-101907848D01*
X144508794Y-101848789D01*
X144447669Y-101815284D01*
X144377776Y-101804045D01*
X144291052Y-101820009D01*
X144213065Y-101868769D01*
X144158130Y-101940417D01*
X144140403Y-102022184D01*
X144155014Y-102090749D01*
X144207791Y-102181906D01*
X144317937Y-102305048D01*
G37*
G36*
X142215871Y-101068267D02*
G01*
X142294443Y-101102643D01*
X142359872Y-101165808D01*
X142409840Y-101261749D01*
X142426428Y-101367613D01*
X142429787Y-102747738D01*
X142433298Y-103131657D01*
X142436656Y-103515576D01*
X142419530Y-103605804D01*
X142368421Y-103680746D01*
X142292228Y-103731070D01*
X142197603Y-103748218D01*
X142102849Y-103731126D01*
X142026786Y-103681051D01*
X141975546Y-103606413D01*
X141958398Y-103516645D01*
X141977174Y-102966641D01*
X141677560Y-103077080D01*
X141389130Y-103224333D01*
X141110265Y-103410236D01*
X140839766Y-103637545D01*
X140757715Y-103691834D01*
X140670780Y-103709139D01*
X140578581Y-103691944D01*
X140499963Y-103640293D01*
X140445957Y-103564240D01*
X140428217Y-103475887D01*
X140442825Y-103397155D01*
X140487903Y-103324456D01*
X140651586Y-103162660D01*
X140874749Y-102991543D01*
X141169494Y-102810325D01*
X140971892Y-102719654D01*
X140821812Y-102622530D01*
X140710928Y-102519829D01*
X140625332Y-102397960D01*
X140574986Y-102266849D01*
X140558007Y-102123087D01*
X141037908Y-102123087D01*
X141051478Y-102162754D01*
X141110570Y-102235591D01*
X141187300Y-102302982D01*
X141270244Y-102354812D01*
X141409642Y-102408401D01*
X141610134Y-102445975D01*
X141890163Y-102460447D01*
X141965267Y-102458616D01*
X141965267Y-101540262D01*
X141765446Y-101554154D01*
X141601080Y-101586618D01*
X141440164Y-101650824D01*
X141280471Y-101749548D01*
X141165009Y-101849916D01*
X141091411Y-101944194D01*
X141050861Y-102034299D01*
X141037908Y-102123087D01*
X140558007Y-102123087D01*
X140557971Y-102122782D01*
X140575759Y-101956806D01*
X140629001Y-101799708D01*
X140720000Y-101648078D01*
X140854194Y-101499597D01*
X141039761Y-101353191D01*
X141287188Y-101209008D01*
X141401556Y-101159950D01*
X141536052Y-101121199D01*
X141693700Y-101094061D01*
X142118988Y-101061546D01*
X142215871Y-101068267D01*
G37*
G36*
X139533188Y-101915634D02*
G01*
X139682415Y-101955766D01*
X139816209Y-102021208D01*
X139937099Y-102112905D01*
X140046587Y-102233607D01*
X140144239Y-102388202D01*
X140214892Y-102559644D01*
X140258573Y-102750882D01*
X140273733Y-102965572D01*
X140261412Y-103120333D01*
X140226109Y-103255471D01*
X140169100Y-103374380D01*
X140089989Y-103479637D01*
X139986748Y-103572821D01*
X139853210Y-103655367D01*
X139699845Y-103716117D01*
X139523195Y-103754312D01*
X139319049Y-103767757D01*
X139142431Y-103756348D01*
X138973861Y-103722544D01*
X138811787Y-103666396D01*
X138674015Y-103592407D01*
X138588467Y-103516155D01*
X138541776Y-103437194D01*
X138526633Y-103352239D01*
X138538554Y-103275252D01*
X138570444Y-103224795D01*
X138622849Y-103193453D01*
X138704167Y-103181574D01*
X138793911Y-103198844D01*
X138931313Y-103264464D01*
X139040896Y-103314693D01*
X139168886Y-103346271D01*
X139319049Y-103357429D01*
X139463674Y-103344674D01*
X139585426Y-103308581D01*
X139692901Y-103247627D01*
X139783568Y-103162035D01*
X139208071Y-102909854D01*
X138945106Y-102786596D01*
X138823846Y-102716750D01*
X138725829Y-102636102D01*
X138661926Y-102555285D01*
X138625701Y-102472981D01*
X138613798Y-102386717D01*
X138615137Y-102376489D01*
X139066410Y-102376489D01*
X139216272Y-102463024D01*
X139433538Y-102567914D01*
X139817762Y-102732168D01*
X139763705Y-102596244D01*
X139703101Y-102493213D01*
X139636870Y-102417094D01*
X139556543Y-102358739D01*
X139467014Y-102323980D01*
X139365302Y-102312070D01*
X139243472Y-102320137D01*
X139145279Y-102342339D01*
X139066410Y-102376489D01*
X138615137Y-102376489D01*
X138630043Y-102262670D01*
X138676804Y-102159149D01*
X138755224Y-102071139D01*
X138871626Y-101996691D01*
X139005958Y-101946130D01*
X139168616Y-101913490D01*
X139365150Y-101901742D01*
X139533188Y-101915634D01*
G37*
G36*
X137306335Y-103562899D02*
G01*
X137328314Y-103641088D01*
X137376402Y-103703186D01*
X137444130Y-103743950D01*
X137528291Y-103757987D01*
X137608333Y-103746836D01*
X137673725Y-103714841D01*
X137728103Y-103660938D01*
X137772534Y-103579996D01*
X138337956Y-102200481D01*
X138354816Y-102149292D01*
X138360090Y-102102937D01*
X138341833Y-102018258D01*
X138285901Y-101946469D01*
X138205932Y-101898162D01*
X138115847Y-101882202D01*
X138026474Y-101897523D01*
X137958189Y-101941366D01*
X137905799Y-102017452D01*
X137789822Y-102293310D01*
X137526612Y-102986180D01*
X137277331Y-102397097D01*
X137128801Y-102028901D01*
X137072431Y-101951191D01*
X137003296Y-101907085D01*
X136917073Y-101891972D01*
X136826947Y-101907733D01*
X136747172Y-101955323D01*
X136705430Y-102001641D01*
X136681102Y-102053455D01*
X136672830Y-102112859D01*
X136709765Y-102231913D01*
X136949435Y-102790786D01*
X137306335Y-103562899D01*
G37*
G36*
X135293927Y-103689600D02*
G01*
X135971853Y-103689600D01*
X136105553Y-103678429D01*
X136194180Y-103649938D01*
X136250594Y-103608930D01*
X136283263Y-103555836D01*
X136294712Y-103486573D01*
X136281875Y-103408458D01*
X136245292Y-103348666D01*
X136182234Y-103302568D01*
X136083331Y-103270584D01*
X135934301Y-103258053D01*
X135859196Y-103259732D01*
X135859196Y-101740542D01*
X135998036Y-101825790D01*
X136052148Y-101843124D01*
X136141337Y-101826151D01*
X136218691Y-101774736D01*
X136272190Y-101699926D01*
X136289522Y-101615672D01*
X136278718Y-101557425D01*
X136243256Y-101494084D01*
X136175033Y-101422568D01*
X135982081Y-101282281D01*
X135773711Y-101114822D01*
X135684978Y-101061426D01*
X135603154Y-101031846D01*
X135526110Y-101022468D01*
X135458739Y-101034060D01*
X135413170Y-101065905D01*
X135383793Y-101120261D01*
X135372390Y-101207176D01*
X135389487Y-101780384D01*
X135401644Y-102189913D01*
X135406584Y-102835971D01*
X135406584Y-103249962D01*
X135293927Y-103249962D01*
X135202005Y-103266009D01*
X135127384Y-103313008D01*
X135076845Y-103383572D01*
X135059911Y-103469781D01*
X135076845Y-103555990D01*
X135127384Y-103626554D01*
X135202005Y-103673553D01*
X135293927Y-103689600D01*
G37*
G36*
X133809846Y-103865454D02*
G01*
X133917139Y-103847447D01*
X134007988Y-103794166D01*
X134056068Y-103742385D01*
X134082884Y-103689476D01*
X134091641Y-103633576D01*
X134082853Y-103576409D01*
X134055990Y-103522331D01*
X134007988Y-103469476D01*
X133917015Y-103414894D01*
X133809846Y-103396508D01*
X133731623Y-103404613D01*
X133665951Y-103427677D01*
X133610177Y-103465201D01*
X133565984Y-103515225D01*
X133540276Y-103570637D01*
X133531562Y-103633576D01*
X133540255Y-103690646D01*
X133566652Y-103743806D01*
X133613536Y-103794929D01*
X133702905Y-103847572D01*
X133809846Y-103865454D01*
G37*
G36*
X132149763Y-101050404D02*
G01*
X132327316Y-101103034D01*
X132486857Y-101189457D01*
X132631500Y-101311854D01*
X132762807Y-101475080D01*
X132869981Y-101664798D01*
X132947028Y-101869318D01*
X132994209Y-102091215D01*
X133010409Y-102333594D01*
X132996969Y-102624900D01*
X132959202Y-102874282D01*
X132900293Y-103087296D01*
X132822494Y-103268891D01*
X132726654Y-103421495D01*
X132616617Y-103542153D01*
X132491748Y-103634862D01*
X132350080Y-103701856D01*
X132188456Y-103743445D01*
X132002754Y-103757987D01*
X131797127Y-103741338D01*
X131620987Y-103694001D01*
X131469108Y-103618098D01*
X131337572Y-103513259D01*
X131224078Y-103376663D01*
X131138883Y-103226758D01*
X131067899Y-103043630D01*
X131013065Y-102821462D01*
X130977307Y-102553606D01*
X130966765Y-102291157D01*
X131442675Y-102291157D01*
X131453592Y-102557886D01*
X131483164Y-102769149D01*
X131527274Y-102934287D01*
X131582809Y-103061590D01*
X131663992Y-103176580D01*
X131759078Y-103254924D01*
X131870373Y-103301978D01*
X132002907Y-103318350D01*
X132128448Y-103303708D01*
X132233858Y-103261777D01*
X132323762Y-103192508D01*
X132400525Y-103091886D01*
X132463915Y-102952444D01*
X132504119Y-102798551D01*
X132531978Y-102587962D01*
X132542531Y-102306727D01*
X132525462Y-102099016D01*
X132476133Y-101914304D01*
X132395680Y-101748479D01*
X132300342Y-101622424D01*
X132196167Y-101538095D01*
X132081291Y-101488665D01*
X131951616Y-101471874D01*
X131829229Y-101485374D01*
X131727530Y-101523751D01*
X131641963Y-101586426D01*
X131569986Y-101676275D01*
X131519183Y-101778582D01*
X131479186Y-101910611D01*
X131452504Y-102078956D01*
X131442675Y-102291157D01*
X130966765Y-102291157D01*
X130964417Y-102232691D01*
X130979630Y-101997671D01*
X131023474Y-101787384D01*
X131094237Y-101598252D01*
X131191563Y-101427300D01*
X131310154Y-101283170D01*
X131442883Y-101174156D01*
X131591439Y-101096489D01*
X131758961Y-101048801D01*
X131949784Y-101032237D01*
X132149763Y-101050404D01*
G37*
%LPC*%
D15*
X195597800Y-72183800D03*
X189817800Y-72183800D03*
D16*
X197027800Y-72683800D03*
D17*
X197027800Y-68503800D03*
D16*
X188387800Y-72683800D03*
D17*
X188387800Y-68503800D03*
G36*
X136963039Y-75849685D02*
G01*
X137008794Y-75902489D01*
X137020000Y-75954000D01*
X137020000Y-79356000D01*
X137000315Y-79423039D01*
X136947511Y-79468794D01*
X136896000Y-79480000D01*
X120534000Y-79480000D01*
X120466961Y-79460315D01*
X120421206Y-79407511D01*
X120410000Y-79356000D01*
X120410000Y-75954000D01*
X120429685Y-75886961D01*
X120482489Y-75841206D01*
X120534000Y-75830000D01*
X136896000Y-75830000D01*
X136963039Y-75849685D01*
G37*
G36*
X136953039Y-81539685D02*
G01*
X136998794Y-81592489D01*
X137010000Y-81644000D01*
X137010000Y-85046000D01*
X136990315Y-85113039D01*
X136937511Y-85158794D01*
X136886000Y-85170000D01*
X120524000Y-85170000D01*
X120456961Y-85150315D01*
X120411206Y-85097511D01*
X120400000Y-85046000D01*
X120400000Y-81644000D01*
X120419685Y-81576961D01*
X120472489Y-81531206D01*
X120524000Y-81520000D01*
X136886000Y-81520000D01*
X136953039Y-81539685D01*
G37*
%LPD*%
M02*
