G04 #@! TF.GenerationSoftware,KiCad,Pcbnew,9.0.3*
G04 #@! TF.CreationDate,2025-08-18T16:43:48-07:00*
G04 #@! TF.ProjectId,OneBoardFlex,4f6e6542-6f61-4726-9446-6c65782e6b69,rev?*
G04 #@! TF.SameCoordinates,Original*
G04 #@! TF.FileFunction,Profile,NP*
%FSLAX46Y46*%
G04 Gerber Fmt 4.6, Leading zero omitted, Abs format (unit mm)*
G04 Created by KiCad (PCBNEW 9.0.3) date 2025-08-18 16:43:48*
%MOMM*%
%LPD*%
G01*
G04 APERTURE LIST*
G04 #@! TA.AperFunction,Profile*
%ADD10C,0.050000*%
G04 #@! TD*
G04 APERTURE END LIST*
D10*
X204340000Y-66250000D02*
G75*
G02*
X206340000Y-68250000I0J-2000000D01*
G01*
X140040000Y-73690000D02*
G75*
G02*
X139790000Y-73940000I-250000J0D01*
G01*
X136860000Y-80440000D02*
G75*
G02*
X137180000Y-80120000I320000J0D01*
G01*
X137180000Y-80790000D02*
G75*
G02*
X136860000Y-80470000I0J320000D01*
G01*
X137540000Y-80990000D02*
X137540000Y-86690000D01*
X127060000Y-80790000D02*
X130420000Y-80790000D01*
X137540000Y-79920000D02*
X137540000Y-74190000D01*
X116539828Y-63212893D02*
G75*
G02*
X117439807Y-64112893I-28J-900007D01*
G01*
X119940000Y-80990000D02*
X119940000Y-86705000D01*
X117689828Y-73955000D02*
X119690000Y-73955000D01*
X182715787Y-68835786D02*
G75*
G02*
X180715787Y-68835786I-1000000J0D01*
G01*
X180715787Y-68835786D02*
G75*
G02*
X182715787Y-68835786I1000000J0D01*
G01*
X119940000Y-80990000D02*
G75*
G02*
X120140000Y-80790000I200000J0D01*
G01*
X179130000Y-98460000D02*
G75*
G02*
X178130000Y-99460000I-1000000J0D01*
G01*
X115440000Y-64112893D02*
X115440000Y-96667107D01*
X115440000Y-64112893D02*
G75*
G02*
X116340000Y-63212900I900000J-7D01*
G01*
X137540000Y-74190000D02*
G75*
G02*
X137790000Y-73940000I250000J0D01*
G01*
X126740000Y-80440000D02*
G75*
G02*
X127060000Y-80120000I320000J0D01*
G01*
X141040000Y-99460000D02*
G75*
G02*
X140040000Y-98460000I0J1000000D01*
G01*
X137790000Y-86940000D02*
G75*
G02*
X137540000Y-86690000I0J250000D01*
G01*
X130740000Y-80470000D02*
G75*
G02*
X130420000Y-80790000I-320000J0D01*
G01*
X137540000Y-79920000D02*
G75*
G02*
X137340000Y-80120000I-200000J0D01*
G01*
X107990000Y-51790000D02*
X139040000Y-51790000D01*
X119690000Y-86955000D02*
X117690000Y-86955000D01*
X120300000Y-80120000D02*
G75*
G02*
X120620000Y-80440000I0J-320000D01*
G01*
X130740000Y-80440000D02*
X130740000Y-80470000D01*
X206340000Y-108590000D02*
G75*
G02*
X204340000Y-110590000I-2000000J0D01*
G01*
X206340000Y-68250000D02*
X206340000Y-108590000D01*
X204754214Y-108004214D02*
G75*
G02*
X202754214Y-108004214I-1000000J0D01*
G01*
X202754214Y-108004214D02*
G75*
G02*
X204754214Y-108004214I1000000J0D01*
G01*
X140040000Y-73690000D02*
X140040000Y-52790000D01*
X107990000Y-110590000D02*
G75*
G02*
X106740000Y-109340000I0J1250000D01*
G01*
X179130000Y-68250000D02*
G75*
G02*
X181130000Y-66250000I2000000J0D01*
G01*
X141040000Y-99460000D02*
X178130000Y-99460000D01*
X116539828Y-63212893D02*
X116340000Y-63212893D01*
X127060000Y-80120000D02*
X130420000Y-80120000D01*
X126740000Y-80440000D02*
X126740000Y-80470000D01*
X130420000Y-80120000D02*
G75*
G02*
X130740000Y-80440000I0J-320000D01*
G01*
X106740000Y-53040000D02*
G75*
G02*
X107990000Y-51790000I1250000J0D01*
G01*
X120140000Y-80120000D02*
X120300000Y-80120000D01*
X139790000Y-86940000D02*
G75*
G02*
X140040000Y-87190000I0J-250000D01*
G01*
X137340000Y-80790000D02*
X137180000Y-80790000D01*
X137340000Y-80120000D02*
X137180000Y-80120000D01*
X117440000Y-87205000D02*
G75*
G02*
X117690000Y-86955000I250000J0D01*
G01*
X117689828Y-73955000D02*
G75*
G02*
X117439800Y-73705200I-28J250000D01*
G01*
X137790000Y-86940000D02*
X139790000Y-86940000D01*
X137790000Y-73940000D02*
X139790000Y-73940000D01*
X136860000Y-80470000D02*
X136860000Y-80440000D01*
X140040000Y-87190000D02*
X140040000Y-98460000D01*
X179130000Y-68250000D02*
X179130000Y-98460000D01*
X119690000Y-73955000D02*
G75*
G02*
X119940000Y-74205000I0J-250000D01*
G01*
X139040000Y-51790000D02*
G75*
G02*
X140040000Y-52790000I0J-1000000D01*
G01*
X120620000Y-80470000D02*
G75*
G02*
X120300000Y-80790000I-320000J0D01*
G01*
X120140000Y-80790000D02*
X120300000Y-80790000D01*
X120140000Y-80120000D02*
G75*
G02*
X119940000Y-79920000I0J200000D01*
G01*
X117440000Y-87205000D02*
X117440000Y-96667107D01*
X119940000Y-79920000D02*
X119940000Y-74205000D01*
X116440000Y-97667107D02*
G75*
G02*
X115439993Y-96667107I0J1000007D01*
G01*
X117440000Y-96667107D02*
G75*
G02*
X116440000Y-97667100I-1000000J7D01*
G01*
X117439828Y-73705200D02*
X117439828Y-64112893D01*
X120620000Y-80470000D02*
X120620000Y-80440000D01*
X204754213Y-68835786D02*
G75*
G02*
X202754213Y-68835786I-1000000J0D01*
G01*
X202754213Y-68835786D02*
G75*
G02*
X204754213Y-68835786I1000000J0D01*
G01*
X106740000Y-109340000D02*
X106740000Y-53040000D01*
X137340000Y-80790000D02*
G75*
G02*
X137540000Y-80990000I0J-200000D01*
G01*
X127060000Y-80790000D02*
G75*
G02*
X126740000Y-80470000I0J320000D01*
G01*
X204340000Y-110590000D02*
X107990000Y-110590000D01*
X119940000Y-86705000D02*
G75*
G02*
X119690000Y-86955000I-250000J0D01*
G01*
X204340000Y-66250000D02*
X181130000Y-66250000D01*
M02*
