G04 #@! TF.GenerationSoftware,KiCad,Pcbnew,9.0.3*
G04 #@! TF.CreationDate,2025-08-04T02:06:45-07:00*
G04 #@! TF.ProjectId,OneBoardFlex,4f6e6542-6f61-4726-9446-6c65782e6b69,rev?*
G04 #@! TF.SameCoordinates,Original*
G04 #@! TF.FileFunction,Other,User*
%FSLAX46Y46*%
G04 Gerber Fmt 4.6, Leading zero omitted, Abs format (unit mm)*
G04 Created by KiCad (PCBNEW 9.0.3) date 2025-08-04 02:06:45*
%MOMM*%
%LPD*%
G01*
G04 APERTURE LIST*
%ADD10C,0.150000*%
G04 APERTURE END LIST*
D10*
X162341112Y-72955209D02*
X162007779Y-72955209D01*
X162007779Y-73479019D02*
X162007779Y-72479019D01*
X162007779Y-72479019D02*
X162483969Y-72479019D01*
X163436350Y-73479019D02*
X163103017Y-73002828D01*
X162864922Y-73479019D02*
X162864922Y-72479019D01*
X162864922Y-72479019D02*
X163245874Y-72479019D01*
X163245874Y-72479019D02*
X163341112Y-72526638D01*
X163341112Y-72526638D02*
X163388731Y-72574257D01*
X163388731Y-72574257D02*
X163436350Y-72669495D01*
X163436350Y-72669495D02*
X163436350Y-72812352D01*
X163436350Y-72812352D02*
X163388731Y-72907590D01*
X163388731Y-72907590D02*
X163341112Y-72955209D01*
X163341112Y-72955209D02*
X163245874Y-73002828D01*
X163245874Y-73002828D02*
X162864922Y-73002828D01*
X164293493Y-72812352D02*
X164293493Y-73479019D01*
X164055398Y-72431400D02*
X163817303Y-73145685D01*
X163817303Y-73145685D02*
X164436350Y-73145685D01*
X165531589Y-73431400D02*
X165674446Y-73479019D01*
X165674446Y-73479019D02*
X165912541Y-73479019D01*
X165912541Y-73479019D02*
X166007779Y-73431400D01*
X166007779Y-73431400D02*
X166055398Y-73383780D01*
X166055398Y-73383780D02*
X166103017Y-73288542D01*
X166103017Y-73288542D02*
X166103017Y-73193304D01*
X166103017Y-73193304D02*
X166055398Y-73098066D01*
X166055398Y-73098066D02*
X166007779Y-73050447D01*
X166007779Y-73050447D02*
X165912541Y-73002828D01*
X165912541Y-73002828D02*
X165722065Y-72955209D01*
X165722065Y-72955209D02*
X165626827Y-72907590D01*
X165626827Y-72907590D02*
X165579208Y-72859971D01*
X165579208Y-72859971D02*
X165531589Y-72764733D01*
X165531589Y-72764733D02*
X165531589Y-72669495D01*
X165531589Y-72669495D02*
X165579208Y-72574257D01*
X165579208Y-72574257D02*
X165626827Y-72526638D01*
X165626827Y-72526638D02*
X165722065Y-72479019D01*
X165722065Y-72479019D02*
X165960160Y-72479019D01*
X165960160Y-72479019D02*
X166103017Y-72526638D01*
X166388732Y-72812352D02*
X166769684Y-72812352D01*
X166531589Y-72479019D02*
X166531589Y-73336161D01*
X166531589Y-73336161D02*
X166579208Y-73431400D01*
X166579208Y-73431400D02*
X166674446Y-73479019D01*
X166674446Y-73479019D02*
X166769684Y-73479019D01*
X167103018Y-73479019D02*
X167103018Y-72812352D01*
X167103018Y-72479019D02*
X167055399Y-72526638D01*
X167055399Y-72526638D02*
X167103018Y-72574257D01*
X167103018Y-72574257D02*
X167150637Y-72526638D01*
X167150637Y-72526638D02*
X167103018Y-72479019D01*
X167103018Y-72479019D02*
X167103018Y-72574257D01*
X167436351Y-72812352D02*
X167817303Y-72812352D01*
X167579208Y-73479019D02*
X167579208Y-72621876D01*
X167579208Y-72621876D02*
X167626827Y-72526638D01*
X167626827Y-72526638D02*
X167722065Y-72479019D01*
X167722065Y-72479019D02*
X167817303Y-72479019D01*
X168007780Y-72812352D02*
X168388732Y-72812352D01*
X168150637Y-73479019D02*
X168150637Y-72621876D01*
X168150637Y-72621876D02*
X168198256Y-72526638D01*
X168198256Y-72526638D02*
X168293494Y-72479019D01*
X168293494Y-72479019D02*
X168388732Y-72479019D01*
X169103018Y-73431400D02*
X169007780Y-73479019D01*
X169007780Y-73479019D02*
X168817304Y-73479019D01*
X168817304Y-73479019D02*
X168722066Y-73431400D01*
X168722066Y-73431400D02*
X168674447Y-73336161D01*
X168674447Y-73336161D02*
X168674447Y-72955209D01*
X168674447Y-72955209D02*
X168722066Y-72859971D01*
X168722066Y-72859971D02*
X168817304Y-72812352D01*
X168817304Y-72812352D02*
X169007780Y-72812352D01*
X169007780Y-72812352D02*
X169103018Y-72859971D01*
X169103018Y-72859971D02*
X169150637Y-72955209D01*
X169150637Y-72955209D02*
X169150637Y-73050447D01*
X169150637Y-73050447D02*
X168674447Y-73145685D01*
X169579209Y-72812352D02*
X169579209Y-73479019D01*
X169579209Y-72907590D02*
X169626828Y-72859971D01*
X169626828Y-72859971D02*
X169722066Y-72812352D01*
X169722066Y-72812352D02*
X169864923Y-72812352D01*
X169864923Y-72812352D02*
X169960161Y-72859971D01*
X169960161Y-72859971D02*
X170007780Y-72955209D01*
X170007780Y-72955209D02*
X170007780Y-73479019D01*
X170864923Y-73431400D02*
X170769685Y-73479019D01*
X170769685Y-73479019D02*
X170579209Y-73479019D01*
X170579209Y-73479019D02*
X170483971Y-73431400D01*
X170483971Y-73431400D02*
X170436352Y-73336161D01*
X170436352Y-73336161D02*
X170436352Y-72955209D01*
X170436352Y-72955209D02*
X170483971Y-72859971D01*
X170483971Y-72859971D02*
X170579209Y-72812352D01*
X170579209Y-72812352D02*
X170769685Y-72812352D01*
X170769685Y-72812352D02*
X170864923Y-72859971D01*
X170864923Y-72859971D02*
X170912542Y-72955209D01*
X170912542Y-72955209D02*
X170912542Y-73050447D01*
X170912542Y-73050447D02*
X170436352Y-73145685D01*
X171341114Y-73479019D02*
X171341114Y-72812352D01*
X171341114Y-73002828D02*
X171388733Y-72907590D01*
X171388733Y-72907590D02*
X171436352Y-72859971D01*
X171436352Y-72859971D02*
X171531590Y-72812352D01*
X171531590Y-72812352D02*
X171626828Y-72812352D01*
X173198257Y-73479019D02*
X172722067Y-73479019D01*
X172722067Y-73479019D02*
X172722067Y-72479019D01*
X173960162Y-73479019D02*
X173960162Y-72955209D01*
X173960162Y-72955209D02*
X173912543Y-72859971D01*
X173912543Y-72859971D02*
X173817305Y-72812352D01*
X173817305Y-72812352D02*
X173626829Y-72812352D01*
X173626829Y-72812352D02*
X173531591Y-72859971D01*
X173960162Y-73431400D02*
X173864924Y-73479019D01*
X173864924Y-73479019D02*
X173626829Y-73479019D01*
X173626829Y-73479019D02*
X173531591Y-73431400D01*
X173531591Y-73431400D02*
X173483972Y-73336161D01*
X173483972Y-73336161D02*
X173483972Y-73240923D01*
X173483972Y-73240923D02*
X173531591Y-73145685D01*
X173531591Y-73145685D02*
X173626829Y-73098066D01*
X173626829Y-73098066D02*
X173864924Y-73098066D01*
X173864924Y-73098066D02*
X173960162Y-73050447D01*
X174341115Y-72812352D02*
X174579210Y-73479019D01*
X174817305Y-72812352D02*
X174579210Y-73479019D01*
X174579210Y-73479019D02*
X174483972Y-73717114D01*
X174483972Y-73717114D02*
X174436353Y-73764733D01*
X174436353Y-73764733D02*
X174341115Y-73812352D01*
X175579210Y-73431400D02*
X175483972Y-73479019D01*
X175483972Y-73479019D02*
X175293496Y-73479019D01*
X175293496Y-73479019D02*
X175198258Y-73431400D01*
X175198258Y-73431400D02*
X175150639Y-73336161D01*
X175150639Y-73336161D02*
X175150639Y-72955209D01*
X175150639Y-72955209D02*
X175198258Y-72859971D01*
X175198258Y-72859971D02*
X175293496Y-72812352D01*
X175293496Y-72812352D02*
X175483972Y-72812352D01*
X175483972Y-72812352D02*
X175579210Y-72859971D01*
X175579210Y-72859971D02*
X175626829Y-72955209D01*
X175626829Y-72955209D02*
X175626829Y-73050447D01*
X175626829Y-73050447D02*
X175150639Y-73145685D01*
X176055401Y-73479019D02*
X176055401Y-72812352D01*
X176055401Y-73002828D02*
X176103020Y-72907590D01*
X176103020Y-72907590D02*
X176150639Y-72859971D01*
X176150639Y-72859971D02*
X176245877Y-72812352D01*
X176245877Y-72812352D02*
X176341115Y-72812352D01*
G36*
X204341121Y-66250020D02*
G01*
X204475100Y-66252409D01*
X204490536Y-66253651D01*
X204756897Y-66291948D01*
X204774185Y-66295709D01*
X205031311Y-66371208D01*
X205047887Y-66377391D01*
X205291654Y-66488715D01*
X205307183Y-66497194D01*
X205532624Y-66642077D01*
X205546787Y-66652679D01*
X205749317Y-66828172D01*
X205761827Y-66840682D01*
X205937320Y-67043212D01*
X205947922Y-67057375D01*
X206092805Y-67282816D01*
X206101284Y-67298345D01*
X206212608Y-67542112D01*
X206218791Y-67558688D01*
X206294290Y-67815814D01*
X206298051Y-67833102D01*
X206336348Y-68099463D01*
X206337590Y-68114898D01*
X206339980Y-68248877D01*
X206340000Y-68251089D01*
X206340000Y-108588910D01*
X206339980Y-108591122D01*
X206337590Y-108725101D01*
X206336348Y-108740536D01*
X206298051Y-109006897D01*
X206294290Y-109024185D01*
X206218791Y-109281311D01*
X206212608Y-109297887D01*
X206101284Y-109541654D01*
X206092805Y-109557183D01*
X205947922Y-109782624D01*
X205937320Y-109796787D01*
X205761827Y-109999317D01*
X205749317Y-110011827D01*
X205546787Y-110187320D01*
X205532624Y-110197922D01*
X205307183Y-110342805D01*
X205291654Y-110351284D01*
X205047887Y-110462608D01*
X205031311Y-110468791D01*
X204774185Y-110544290D01*
X204756897Y-110548051D01*
X204490536Y-110586348D01*
X204475101Y-110587590D01*
X204341122Y-110589980D01*
X204338910Y-110590000D01*
X179194000Y-110590000D01*
X179126961Y-110570315D01*
X179081206Y-110517511D01*
X179070000Y-110466000D01*
X179070000Y-108004214D01*
X202751636Y-108004214D01*
X202772157Y-108206033D01*
X202832883Y-108399578D01*
X202832890Y-108399593D01*
X202931332Y-108576952D01*
X202931335Y-108576957D01*
X203063469Y-108730874D01*
X203063470Y-108730876D01*
X203223882Y-108855043D01*
X203406012Y-108944383D01*
X203602396Y-108995230D01*
X203602393Y-108995230D01*
X203804994Y-109005505D01*
X203804996Y-109005505D01*
X204005508Y-108974787D01*
X204005514Y-108974786D01*
X204195736Y-108904336D01*
X204195743Y-108904333D01*
X204367899Y-108797027D01*
X204514929Y-108657265D01*
X204630814Y-108490768D01*
X204710814Y-108304347D01*
X204751649Y-108105638D01*
X204754214Y-108004228D01*
X204754214Y-108004199D01*
X204751649Y-107902789D01*
X204710814Y-107704080D01*
X204630814Y-107517659D01*
X204514929Y-107351162D01*
X204367899Y-107211400D01*
X204195743Y-107104094D01*
X204195736Y-107104091D01*
X204005514Y-107033641D01*
X204005508Y-107033640D01*
X203804995Y-107002922D01*
X203602395Y-107013197D01*
X203406012Y-107064044D01*
X203223882Y-107153384D01*
X203063470Y-107277551D01*
X203063469Y-107277553D01*
X202931335Y-107431470D01*
X202931332Y-107431475D01*
X202832890Y-107608834D01*
X202832883Y-107608849D01*
X202772157Y-107802394D01*
X202751636Y-108004214D01*
X179070000Y-108004214D01*
X179070000Y-98822140D01*
X179079439Y-98774687D01*
X179089255Y-98750987D01*
X179089257Y-98750979D01*
X179127591Y-98558261D01*
X179127592Y-98558252D01*
X179130000Y-98459992D01*
X179130000Y-68835786D01*
X180713209Y-68835786D01*
X180733730Y-69037605D01*
X180794456Y-69231150D01*
X180794463Y-69231165D01*
X180892905Y-69408524D01*
X180892908Y-69408529D01*
X181025042Y-69562446D01*
X181025043Y-69562448D01*
X181185455Y-69686615D01*
X181367585Y-69775955D01*
X181563969Y-69826802D01*
X181563966Y-69826802D01*
X181766567Y-69837077D01*
X181766569Y-69837077D01*
X181967081Y-69806359D01*
X181967087Y-69806358D01*
X182157309Y-69735908D01*
X182157316Y-69735905D01*
X182329472Y-69628599D01*
X182476502Y-69488837D01*
X182592387Y-69322340D01*
X182672387Y-69135919D01*
X182713222Y-68937210D01*
X182715787Y-68835800D01*
X182715787Y-68835786D01*
X202751635Y-68835786D01*
X202772156Y-69037605D01*
X202832882Y-69231150D01*
X202832889Y-69231165D01*
X202931331Y-69408524D01*
X202931334Y-69408529D01*
X203063468Y-69562446D01*
X203063469Y-69562448D01*
X203223881Y-69686615D01*
X203406011Y-69775955D01*
X203602395Y-69826802D01*
X203602392Y-69826802D01*
X203804993Y-69837077D01*
X203804995Y-69837077D01*
X204005507Y-69806359D01*
X204005513Y-69806358D01*
X204195735Y-69735908D01*
X204195742Y-69735905D01*
X204367898Y-69628599D01*
X204514928Y-69488837D01*
X204630813Y-69322340D01*
X204710813Y-69135919D01*
X204751648Y-68937210D01*
X204754213Y-68835800D01*
X204754213Y-68835771D01*
X204751648Y-68734361D01*
X204710813Y-68535652D01*
X204630813Y-68349231D01*
X204514928Y-68182734D01*
X204367898Y-68042972D01*
X204195742Y-67935666D01*
X204195735Y-67935663D01*
X204005513Y-67865213D01*
X204005507Y-67865212D01*
X203804994Y-67834494D01*
X203602394Y-67844769D01*
X203406011Y-67895616D01*
X203223881Y-67984956D01*
X203063469Y-68109123D01*
X203063468Y-68109125D01*
X202931334Y-68263042D01*
X202931331Y-68263047D01*
X202832889Y-68440406D01*
X202832882Y-68440421D01*
X202772156Y-68633966D01*
X202751635Y-68835786D01*
X182715787Y-68835786D01*
X182715787Y-68835771D01*
X182713222Y-68734361D01*
X182672387Y-68535652D01*
X182592387Y-68349231D01*
X182476502Y-68182734D01*
X182329472Y-68042972D01*
X182157316Y-67935666D01*
X182157309Y-67935663D01*
X181967087Y-67865213D01*
X181967081Y-67865212D01*
X181766568Y-67834494D01*
X181563968Y-67844769D01*
X181367585Y-67895616D01*
X181185455Y-67984956D01*
X181025043Y-68109123D01*
X181025042Y-68109125D01*
X180892908Y-68263042D01*
X180892905Y-68263047D01*
X180794463Y-68440406D01*
X180794456Y-68440421D01*
X180733730Y-68633966D01*
X180713209Y-68835786D01*
X179130000Y-68835786D01*
X179130000Y-68251089D01*
X179130020Y-68248878D01*
X179132409Y-68114899D01*
X179133651Y-68099463D01*
X179171948Y-67833102D01*
X179175709Y-67815814D01*
X179251208Y-67558688D01*
X179257391Y-67542112D01*
X179368715Y-67298345D01*
X179377194Y-67282816D01*
X179522077Y-67057375D01*
X179532679Y-67043212D01*
X179708172Y-66840682D01*
X179720682Y-66828172D01*
X179923212Y-66652679D01*
X179937375Y-66642077D01*
X180162816Y-66497194D01*
X180178345Y-66488715D01*
X180422112Y-66377391D01*
X180438688Y-66371208D01*
X180695814Y-66295709D01*
X180713102Y-66291948D01*
X180979463Y-66253651D01*
X180994899Y-66252409D01*
X181128879Y-66250020D01*
X181131090Y-66250000D01*
X204338910Y-66250000D01*
X204341121Y-66250020D01*
G37*
M02*
